<svg width="120" height="120" viewBox="0 0 120 120" fill="none" xmlns="http://www.w3.org/2000/svg">
<g clip-path="url(#clip0_173_9)">
<path d="M60 120C93.0823 120 120 93.0847 120 60C120 54.2896 119.203 48.6621 117.625 43.2727C116.847 40.6226 114.08 39.1003 111.422 39.8779C108.77 40.6531 107.252 43.4302 108.027 46.0803C109.335 50.5579 110 55.2429 110 60C110 87.5696 87.5696 110 60 110C32.4304 110 10 87.5696 10 60C10 32.4304 32.4304 10 60 10C70.0195 10 79.6594 12.9297 87.8772 18.4705C90.1648 20.0146 93.2751 19.408 94.8169 17.1204C96.3599 14.8303 95.7581 11.7224 93.468 10.1794C83.5925 3.52051 72.0203 0 60 0C26.9177 0 0 26.9153 0 60C0 93.0847 26.9177 120 60 120Z" fill="url(#paint0_linear_173_9)"/>
<path d="M60 120C93.0823 120 120 93.0847 120 60C120 54.2896 119.203 48.6621 117.625 43.2727C116.847 40.6226 114.08 39.1003 111.422 39.8779C108.77 40.6531 107.252 43.4302 108.027 46.0803C109.335 50.5579 110 55.2429 110 60C110 87.5696 87.5696 110 60 110C32.4304 110 10 87.5696 10 60C10 32.4304 32.4304 10 60 10C70.0195 10 79.6594 12.9297 87.8772 18.4705C90.1648 20.0146 93.2751 19.408 94.8169 17.1204C96.3599 14.8303 95.7581 11.7224 93.468 10.1794C83.5925 3.52051 72.0203 0 60 0C26.9177 0 0 26.9153 0 60C0 93.0847 26.9177 120 60 120Z" fill="url(#paint1_radial_173_9)" fill-opacity="0.2"/>
<path d="M111.465 11.4648L60.0001 62.9272L43.5352 46.4648C41.5821 44.5129 38.418 44.5129 36.4649 46.4648C34.513 48.418 34.513 51.582 36.4649 53.5352L56.4649 73.5352C57.4427 74.5129 58.7195 75 60.0001 75C61.2806 75 62.5574 74.5129 63.5352 73.5352L118.535 18.5352C120.487 16.582 120.487 13.418 118.535 11.4648C116.582 9.51294 113.418 9.51294 111.465 11.4648Z" fill="url(#paint2_linear_173_9)"/>
<path d="M111.465 11.4648L60.0001 62.9272L43.5352 46.4648C41.5821 44.5129 38.418 44.5129 36.4649 46.4648C34.513 48.418 34.513 51.582 36.4649 53.5352L56.4649 73.5352C57.4427 74.5129 58.7195 75 60.0001 75C61.2806 75 62.5574 74.5129 63.5352 73.5352L118.535 18.5352C120.487 16.582 120.487 13.418 118.535 11.4648C116.582 9.51294 113.418 9.51294 111.465 11.4648Z" fill="url(#paint3_radial_173_9)" fill-opacity="0.2"/>
</g>
<defs>
<linearGradient id="paint0_linear_173_9" x1="0" y1="0" x2="125.379" y2="5.91177" gradientUnits="userSpaceOnUse">
<stop stop-color="#E9C878"/>
<stop offset="1" stop-color="#C1A050"/>
</linearGradient>
<radialGradient id="paint1_radial_173_9" cx="0" cy="0" r="1" gradientUnits="userSpaceOnUse" gradientTransform="translate(60 60) rotate(-108.041) scale(39.8542 117.103)">
<stop stop-color="white"/>
<stop offset="1" stop-color="white" stop-opacity="0"/>
</radialGradient>
<linearGradient id="paint2_linear_173_9" x1="35.001" y1="10.0009" x2="123.67" y2="15.4681" gradientUnits="userSpaceOnUse">
<stop stop-color="#E9C878"/>
<stop offset="1" stop-color="#C1A050"/>
</linearGradient>
<radialGradient id="paint3_radial_173_9" cx="0" cy="0" r="1" gradientUnits="userSpaceOnUse" gradientTransform="translate(77.5001 42.5005) rotate(-113.071) scale(22.3104 80.2581)">
<stop stop-color="white"/>
<stop offset="1" stop-color="white" stop-opacity="0"/>
</radialGradient>
<clipPath id="clip0_173_9">
<rect width="120" height="120" fill="white"/>
</clipPath>
</defs>
</svg>
