<svg width="100" height="100" viewBox="0 0 100 100" fill="none" xmlns="http://www.w3.org/2000/svg">
<path d="M42.6017 8.1354C46.5692 3.77267 53.4308 3.77268 57.3983 8.1354L59.462 10.4047C61.6751 12.8383 64.9434 14.0279 68.203 13.5862L71.2426 13.1743C77.0862 12.3825 82.3425 16.7931 82.5775 22.6854L82.6997 25.7503C82.8307 29.0371 84.5698 32.0492 87.3507 33.8061L89.9439 35.4444C94.9293 38.594 96.1208 45.3514 92.5133 50.0162L90.6368 52.4426C88.6245 55.0447 88.0205 58.4699 89.0215 61.6033L89.955 64.5252C91.7495 70.1425 88.3186 76.0849 82.5567 77.3394L79.5595 77.992C76.3454 78.6918 73.681 80.9274 72.4337 83.9712L71.2706 86.8095C69.0346 92.2661 62.5867 94.6129 57.3664 91.8702L54.651 90.4436C51.7391 88.9137 48.2609 88.9137 45.349 90.4436L42.6336 91.8702C37.4133 94.6129 30.9654 92.2661 28.7294 86.8095L27.5663 83.9712C26.319 80.9274 23.6546 78.6918 20.4405 77.992L17.4433 77.3394C11.6814 76.0849 8.25054 70.1425 10.0451 64.5252L10.9785 61.6033C11.9795 58.4699 11.3755 55.0447 9.36321 52.4426L7.48672 50.0162C3.87921 45.3514 5.07073 38.594 10.0561 35.4444L12.6493 33.8061C15.4302 32.0492 17.1693 29.0371 17.3003 25.7503L17.4225 22.6854C17.6575 16.7931 22.9138 12.3825 28.7574 13.1743L31.797 13.5862C35.0566 14.0279 38.3249 12.8383 40.538 10.4047L42.6017 8.1354Z" fill="url(#paint0_linear_301_1800)"/>
<path d="M42.6017 8.1354C46.5692 3.77267 53.4308 3.77268 57.3983 8.1354L59.462 10.4047C61.6751 12.8383 64.9434 14.0279 68.203 13.5862L71.2426 13.1743C77.0862 12.3825 82.3425 16.7931 82.5775 22.6854L82.6997 25.7503C82.8307 29.0371 84.5698 32.0492 87.3507 33.8061L89.9439 35.4444C94.9293 38.594 96.1208 45.3514 92.5133 50.0162L90.6368 52.4426C88.6245 55.0447 88.0205 58.4699 89.0215 61.6033L89.955 64.5252C91.7495 70.1425 88.3186 76.0849 82.5567 77.3394L79.5595 77.992C76.3454 78.6918 73.681 80.9274 72.4337 83.9712L71.2706 86.8095C69.0346 92.2661 62.5867 94.6129 57.3664 91.8702L54.651 90.4436C51.7391 88.9137 48.2609 88.9137 45.349 90.4436L42.6336 91.8702C37.4133 94.6129 30.9654 92.2661 28.7294 86.8095L27.5663 83.9712C26.319 80.9274 23.6546 78.6918 20.4405 77.992L17.4433 77.3394C11.6814 76.0849 8.25054 70.1425 10.0451 64.5252L10.9785 61.6033C11.9795 58.4699 11.3755 55.0447 9.36321 52.4426L7.48672 50.0162C3.87921 45.3514 5.07073 38.594 10.0561 35.4444L12.6493 33.8061C15.4302 32.0492 17.1693 29.0371 17.3003 25.7503L17.4225 22.6854C17.6575 16.7931 22.9138 12.3825 28.7574 13.1743L31.797 13.5862C35.0566 14.0279 38.3249 12.8383 40.538 10.4047L42.6017 8.1354Z" fill="url(#paint1_radial_301_1800)" fill-opacity="0.2"/>
<g clip-path="url(#clip0_301_1800)">
<path d="M42.2727 43.0455C42.2727 43.4726 42.6183 43.8182 43.0455 43.8182C43.4726 43.8182 43.8182 43.4726 43.8182 43.0455C43.8182 42.6191 44.1646 42.2727 44.591 42.2727C45.0174 42.2727 45.3637 42.6191 45.3637 43.0455C45.3637 43.4719 45.0174 43.8182 44.591 43.8182C44.1638 43.8182 43.8182 44.1638 43.8182 44.591C43.8182 45.0181 44.1638 45.3637 44.591 45.3637C45.0173 45.3637 45.3637 45.7101 45.3637 46.1365C45.3637 46.5628 45.0174 46.9092 44.591 46.9092C44.1646 46.9092 43.8182 46.5629 43.8182 46.1365C43.8182 45.7093 43.4726 45.3637 43.0455 45.3637C42.6183 45.3637 42.2727 45.7093 42.2727 46.1365C42.2727 47.4148 43.3126 48.4546 44.5909 48.4546C45.8692 48.4546 46.9091 47.4148 46.9091 46.1365C46.9091 45.5433 46.6849 45.0015 46.3174 44.591C46.6849 44.1805 46.9091 43.6387 46.9091 43.0456C46.9091 41.7673 45.8692 40.7274 44.5909 40.7274C43.3126 40.7274 42.2727 41.7672 42.2727 43.0455Z" fill="#6E5A45"/>
<path d="M55.4091 48.4546C56.6875 48.4546 57.7273 47.4147 57.7273 46.1364V43.0455C57.7273 41.7671 56.6875 40.7273 55.4091 40.7273C54.1308 40.7273 53.0909 41.7671 53.0909 43.0455V46.1364C53.0909 47.4147 54.1308 48.4546 55.4091 48.4546ZM54.6364 43.0455C54.6364 42.6191 54.9827 42.2727 55.4091 42.2727C55.8354 42.2727 56.1819 42.6191 56.1819 43.0455V46.1364C56.1819 46.5627 55.8355 46.9091 55.4091 46.9091C54.9828 46.9091 54.6364 46.5628 54.6364 46.1364V43.0455Z" fill="#6E5A45"/>
<path d="M49.9999 48.4546C51.2783 48.4546 52.3181 47.4147 52.3181 46.1364C52.3181 44.8581 51.2783 43.8182 49.9999 43.8182C49.7626 43.8182 49.5378 43.8645 49.322 43.9312C49.4966 43.228 50.0084 42.2728 51.5454 42.2728C51.9725 42.2728 52.3181 41.9272 52.3181 41.5C52.3181 41.0729 51.9725 40.7273 51.5454 40.7273C48.4891 40.7273 47.6818 43.2545 47.6818 44.5909V46.1363C47.6818 47.4147 48.7216 48.4546 49.9999 48.4546ZM49.9999 45.3636C50.4263 45.3636 50.7727 45.71 50.7727 46.1364C50.7727 46.5627 50.4263 46.9091 49.9999 46.9091C49.5736 46.9091 49.2272 46.5628 49.2272 46.1364C49.2272 45.7101 49.5736 45.3636 49.9999 45.3636Z" fill="#6E5A45"/>
<path d="M59.2727 42.2727C60.1262 42.2727 60.8182 41.5808 60.8182 40.7273C60.8182 39.8738 60.1262 39.1819 59.2727 39.1819C58.4192 39.1819 57.7273 39.8738 57.7273 40.7273C57.7273 41.5808 58.4192 42.2727 59.2727 42.2727Z" fill="#6E5A45"/>
<path d="M65.4521 56.9504C65.4521 56.6651 65.2951 56.4033 65.0439 56.269C64.7927 56.1348 64.4871 56.1498 64.251 56.3075L63.7091 56.6688C62.3729 54.6342 60.9597 52.8319 60.1691 51.8629C59.899 51.5317 59.4123 51.4804 59.0827 51.7527C58.7514 52.0222 58.7023 52.5089 58.9725 52.8393C60.3971 54.5856 61.5314 56.1393 62.4374 57.5167L61.9333 57.8529C61.7084 58.0031 61.578 58.2597 61.5901 58.5297C61.6022 58.7998 61.7537 59.0436 61.9914 59.1733L64.1041 60.3289C65.5363 63.0924 65.6823 64.7133 65.1993 65.1959C64.6516 65.743 62.6401 65.5535 58.7778 63.2243C56.4374 61.8128 53.831 59.8643 51.1675 57.5565C52.2613 56.5674 53.3579 55.526 54.4438 54.4399C58.2074 50.6757 61.4492 46.7852 63.7191 43.3301L64.2511 43.6848C64.3801 43.7709 64.5295 43.8147 64.6796 43.8147C64.8049 43.8147 64.9301 43.7844 65.044 43.7234C65.2953 43.5891 65.4522 43.3272 65.4522 43.042V40.4177C67.1775 37.1335 67.465 34.8752 66.2919 33.7025C63.9923 31.4048 57.9174 35.2728 54.4996 37.7833C54.1556 38.0353 54.0816 38.519 54.3344 38.8631C54.5849 39.2057 55.07 39.2796 55.4141 39.0283C60.9662 34.9513 64.3809 33.9749 65.1995 34.7951C65.668 35.2638 65.5865 36.8133 64.0975 39.667L61.9916 40.8189C61.7539 40.9487 61.6022 41.1924 61.5902 41.4626C61.5781 41.7327 61.7086 41.9893 61.9335 42.1395L62.4333 42.4727C60.2225 45.842 57.0475 49.6498 53.3514 53.3473C52.2397 54.459 51.1182 55.5194 50.001 56.5254C48.8835 55.5191 47.7615 54.4584 46.6493 53.3464C42.9533 49.6494 39.7785 45.842 37.5677 42.4732L38.0682 42.1394C38.293 41.9892 38.4236 41.7326 38.4115 41.4625C38.3994 41.1924 38.2477 40.9486 38.0101 40.8188L35.9024 39.6662C34.4137 36.813 34.3321 35.2636 34.8006 34.795C35.623 33.974 39.0371 34.952 44.5939 39.0341C44.9371 39.2861 45.4224 39.2121 45.6737 38.8688C45.9263 38.5254 45.8524 38.0419 45.5084 37.7891C42.0874 35.2749 36.0047 31.4024 33.708 33.7023C32.5346 34.8752 32.8225 37.1344 34.5492 40.42V43.0419C34.5492 43.3272 34.7061 43.589 34.9573 43.7233C35.0713 43.7844 35.1965 43.8146 35.3218 43.8146C35.4719 43.8146 35.6212 43.7708 35.7503 43.6848L36.2815 43.3304C38.5513 46.7852 41.7932 50.6752 45.5567 54.4389C46.6431 55.5255 47.74 56.567 48.8344 57.5565C46.1704 59.8646 43.5638 61.8138 41.2231 63.2254C37.3572 65.5563 35.3459 65.7412 34.8019 65.1972C34.3191 64.7144 34.4649 63.093 35.8979 60.3286L38.0099 59.1741C38.2475 59.0443 38.3992 58.7998 38.4112 58.5297C38.4233 58.2596 38.2928 58.003 38.068 57.8529L37.5645 57.5172C38.4662 56.1464 39.5934 54.6013 41.0088 52.8651C41.2783 52.5346 41.2284 52.0479 40.898 51.7777C40.5674 51.5092 40.0816 51.5605 39.8108 51.8886C39.0246 52.8532 37.6213 54.645 36.2924 56.669L35.7503 56.3075C35.5141 56.1498 35.2078 56.1348 34.9572 56.269C34.7061 56.4033 34.5491 56.6652 34.5491 56.9504V59.6115C33.1364 62.3141 32.3691 64.9501 33.7094 66.2899C34.1832 66.7638 34.8328 67 35.6559 67C37.186 67 39.315 66.1812 42.0213 64.5491C44.479 63.0661 47.215 61.0124 50.0008 58.5868C52.7863 61.0118 55.522 63.0651 57.9793 64.5478C60.6857 66.1807 62.8149 66.9993 64.3458 66.9986C65.1682 66.9986 65.8179 66.7625 66.2917 66.2886C67.632 64.949 66.8654 62.3139 65.452 59.6107V56.9504H65.4521Z" fill="#6E5A45"/>
</g>
<defs>
<linearGradient id="paint0_linear_301_1800" x1="0" y1="0" x2="104.483" y2="4.92647" gradientUnits="userSpaceOnUse">
<stop stop-color="#E9C878"/>
<stop offset="1" stop-color="#C1A050"/>
</linearGradient>
<radialGradient id="paint1_radial_301_1800" cx="0" cy="0" r="1" gradientUnits="userSpaceOnUse" gradientTransform="translate(50 50) rotate(-108.041) scale(33.2118 97.5856)">
<stop stop-color="white"/>
<stop offset="1" stop-color="white" stop-opacity="0"/>
</radialGradient>
<clipPath id="clip0_301_1800">
<rect width="34" height="34" fill="white" transform="translate(33 33)"/>
</clipPath>
</defs>
</svg>
