<svg width="30" height="30" viewBox="0 0 30 30" fill="none" xmlns="http://www.w3.org/2000/svg">
<g clip-path="url(#clip0_301_1788)">
<path d="M29.4015 27.8567H28.7095V12.7116L29.0736 12.8815C29.1541 12.9191 29.2405 12.9376 29.3266 12.9376C29.4388 12.9376 29.5505 12.9061 29.6482 12.844C29.8207 12.7341 29.9252 12.5437 29.9252 12.3391V9.93501C29.9252 9.70249 29.7905 9.49099 29.5798 9.39261L27.5188 8.43082V4.54316C27.5188 4.21264 27.2508 3.94466 26.9203 3.94466H23.3603C23.0298 3.94466 22.7618 4.21264 22.7618 4.54316V6.21112L11.5997 1.00242C11.4249 0.920869 11.2216 0.9285 11.0535 1.02291L0.305387 7.05987C0.116783 7.16588 0 7.36533 0 7.58169V9.98581C0 10.1983 0.112743 10.395 0.296185 10.5024C0.479701 10.6097 0.706309 10.6118 0.891621 10.5077L1.21571 10.3257V27.8568H0.623416C0.292893 27.8568 0.0249127 28.1248 0.0249127 28.4553C0.0249127 28.7859 0.292893 29.0538 0.623416 29.0538H1.81421H28.111H29.4015C29.732 29.0538 30 28.7859 30 28.4553C30 28.1248 29.732 27.8567 29.4015 27.8567ZM23.9589 6.74865V5.14167H26.3217V7.87234L23.9578 6.76922C23.958 6.76234 23.9589 6.75561 23.9589 6.74865ZM1.19701 7.93197L11.3719 2.217L28.7282 10.3163V11.3995L11.5997 3.40653C11.5193 3.36897 11.4329 3.35035 11.3467 3.35035C11.2454 3.35035 11.1443 3.37608 11.0535 3.42703L1.19701 8.96319V7.93197ZM2.41272 27.8567V9.67309C2.41272 9.66658 2.41197 9.66029 2.41175 9.65379L11.3719 4.62104L27.5125 12.153V27.8567H2.41272Z" fill="#6E5A45"/>
<path d="M13.7654 17.6868H4.21423C3.8837 17.6868 3.61572 17.9548 3.61572 18.2853V26.0706C3.61572 26.4011 3.8837 26.6691 4.21423 26.6691H13.7654C14.0959 26.6691 14.3639 26.4011 14.3639 26.0706V18.2853C14.3639 17.9548 14.0959 17.6868 13.7654 17.6868ZM4.81273 18.8838H8.39126V25.4721H4.81273V18.8838ZM13.1669 25.4721H9.58834V18.8838H13.1669V25.4721Z" fill="#6E5A45"/>
<path d="M25.7356 17.6868H16.1595C15.829 17.6868 15.561 17.9548 15.561 18.2853V26.0706C15.561 26.4011 15.829 26.6691 16.1595 26.6691H25.7356C26.0661 26.6691 26.3341 26.4011 26.3341 26.0706V18.2853C26.3341 17.9548 26.0661 17.6868 25.7356 17.6868ZM16.758 18.8838H20.3491V25.4721H16.758V18.8838ZM25.1371 25.4721H21.5461V18.8838H25.1371V25.4721Z" fill="#6E5A45"/>
<path d="M25.9887 12.8943L16.456 8.44593C16.3665 8.40411 16.2721 8.38638 16.1796 8.39012C15.8432 8.37875 15.561 8.65107 15.561 8.98832V15.9085C15.561 16.2391 15.829 16.507 16.1595 16.507H25.7356C26.0661 16.507 26.3341 16.2391 26.3341 15.9085V13.4367C26.3341 13.2041 26.1994 12.9927 25.9887 12.8943ZM16.758 9.90778L20.3491 11.5835V15.31H16.758V9.90778ZM25.1371 15.31H21.5461V12.1421L25.1371 13.8179V15.31Z" fill="#6E5A45"/>
<path d="M14.3613 7.80074C14.3606 7.79191 14.3595 7.78323 14.3585 7.77448C14.3572 7.76445 14.3557 7.75443 14.3539 7.74448C14.3521 7.73423 14.35 7.72405 14.3476 7.71396C14.3456 7.7058 14.3436 7.69772 14.3413 7.68964C14.3382 7.67857 14.3348 7.66772 14.3311 7.65687C14.3286 7.64962 14.3259 7.64243 14.3232 7.63525C14.319 7.62448 14.3147 7.61393 14.3099 7.60346C14.3065 7.59613 14.303 7.58887 14.2993 7.58161C14.2944 7.57204 14.2895 7.56261 14.2841 7.55333C14.2796 7.54533 14.2748 7.53755 14.2698 7.52977C14.2647 7.52176 14.2596 7.51391 14.2541 7.5062C14.2481 7.49767 14.2419 7.48937 14.2353 7.48114C14.2302 7.47455 14.2249 7.46812 14.2196 7.46176C14.2123 7.45323 14.2047 7.445 14.1969 7.43685C14.1914 7.43109 14.1858 7.42548 14.1801 7.41994C14.1721 7.41223 14.1638 7.40475 14.1553 7.39742C14.1487 7.39181 14.1421 7.38635 14.1353 7.38096C14.1273 7.37468 14.1192 7.36862 14.1109 7.36271C14.1025 7.35672 14.0939 7.35104 14.0851 7.3455C14.0779 7.34094 14.0706 7.33645 14.0631 7.33211C14.0525 7.32598 14.0416 7.32029 14.0305 7.31483C14.0264 7.31281 14.0227 7.31041 14.0185 7.30847L11.9487 6.34263C11.7427 6.2465 11.5098 6.27777 11.339 6.40421C11.3283 6.40944 11.3176 6.41423 11.307 6.42014L3.92118 10.5686C3.72173 10.6807 3.61146 10.8898 3.61595 11.1037C3.61595 11.1051 3.61572 11.1066 3.61572 11.1081V15.9086C3.61572 16.2391 3.8837 16.5071 4.21423 16.5071H13.7654C14.0959 16.5071 14.3639 16.2391 14.3639 15.9086V7.85086C14.3639 7.84615 14.3633 7.84159 14.3632 7.83687C14.3629 7.82483 14.3624 7.81278 14.3613 7.80074ZM4.81273 11.4407L8.39126 9.43069V15.31H4.81273V11.4407ZM9.58834 15.31V8.75834L11.7241 7.55872L13.1669 8.23203V15.3099H9.58834V15.31Z" fill="#6E5A45"/>
</g>
<defs>
<clipPath id="clip0_301_1788">
<rect width="30" height="30" fill="white"/>
</clipPath>
</defs>
</svg>
