<svg width="90" height="90" viewBox="0 0 90 90" fill="none" xmlns="http://www.w3.org/2000/svg">
<circle cx="70" cy="70" r="20" fill="white"/>
<path d="M37.2413 24.8275C34.1943 24.8275 31.7241 27.2977 31.7241 30.3447C31.7241 33.3918 34.1943 35.862 37.2413 35.862C40.2884 35.862 42.7586 33.3918 42.7586 30.3447C42.7586 27.2977 40.2884 24.8275 37.2413 24.8275ZM37.2413 33.1034C35.7177 33.1034 34.4827 31.8684 34.4827 30.3447C34.4827 28.8211 35.7177 27.5861 37.2413 27.5861C38.765 27.5861 40 28.8211 40 30.3447C40 31.8684 38.765 33.1034 37.2413 33.1034Z" fill="#3766CC"/>
<path d="M53.7929 41.3793C50.7458 41.3793 48.2756 43.8494 48.2756 46.8965C48.2756 49.9436 50.7458 52.4138 53.7929 52.4138C56.8399 52.4138 59.3101 49.9436 59.3101 46.8965C59.3101 43.8494 56.8399 41.3793 53.7929 41.3793ZM53.7929 49.6551C52.2692 49.6551 51.0342 48.4201 51.0342 46.8965C51.0342 45.3729 52.2692 44.1379 53.7929 44.1379C55.3165 44.1379 56.5515 45.3729 56.5515 46.8965C56.5515 48.4201 55.3165 49.6551 53.7929 49.6551Z" fill="#3766CC"/>
<path d="M55.5753 26.6109L33.5068 48.6793L35.4575 50.6299L57.5259 28.5615L55.5753 26.6109Z" fill="#3766CC"/>
<path d="M78.1074 22.8275L68.6895 16.5517H68.9654V6.8965C68.9654 6.13478 68.3478 5.5172 67.5861 5.5172H60.6895C59.9278 5.5172 59.3102 6.13478 59.3102 6.8965V10.2965L46.2827 1.60686C45.8192 1.29755 45.2151 1.29755 44.7516 1.60686L12.9269 22.8275C10.9745 24.129 10.4467 26.7668 11.7483 28.7192C13.0498 30.6716 15.6876 31.1994 17.64 29.8978L22.0689 26.9461V53.793H19.3103C19.3103 53.0312 18.6927 52.4136 17.931 52.4136H6.89654C6.13481 52.4136 5.51723 53.0312 5.51723 53.793H0V56.5516H5.51723V70.3446H0V73.1033H5.51723C5.51723 73.865 6.13481 74.4826 6.89654 74.4826H17.931C18.6927 74.4826 19.3103 73.865 19.3103 73.1033V72.5777L29.6082 76.8536C35.222 79.1463 41.498 79.216 47.1613 77.0481L68.4688 68.9226C69.731 68.4429 70.7469 67.4748 71.2867 66.2371C71.8441 64.9819 71.8729 63.5552 71.3667 62.2785C70.9157 61.1369 70.0612 60.2009 68.9654 59.6481V26.9461L73.3943 29.8978C75.3467 31.1994 77.9845 30.6716 79.286 28.7192C80.5876 26.7668 80.0598 24.1289 78.1074 22.8275ZM16.5517 71.7239H8.27584V55.1723H16.5517V71.7239ZM62.0688 8.27581H66.2067V14.8965L62.0688 12.1379V8.27581ZM68.7571 65.1253C68.5135 65.6884 68.053 66.1297 67.4799 66.3488L46.1723 74.4729C41.1656 76.3908 35.6166 76.3312 30.6523 74.306L19.3103 69.5902V56.5516H22.8068C27.3803 56.5569 31.8903 57.6216 35.9834 59.6619C37.3349 60.3366 38.8246 60.6883 40.3351 60.6895H51.0344C52.177 60.6969 53.0973 61.6291 53.0899 62.7717C53.0837 63.7288 52.4218 64.5569 51.4895 64.7736C51.3089 64.7902 51.1323 64.8274 50.9489 64.8274H34.4827V67.586H50.9489C50.9778 67.586 51.0054 67.586 51.0344 67.586C51.062 67.586 51.0882 67.5778 51.1171 67.5778C52.2118 67.5602 53.2928 67.331 54.3006 66.9033L65.833 62.0081C66.3823 61.7736 67.0036 61.7736 67.553 62.0081C68.1243 62.2493 68.5726 62.7129 68.7943 63.2922C69.0286 63.8834 69.0152 64.5441 68.7571 65.1253ZM51.0344 57.9309H40.3351C39.2527 57.9293 38.1853 57.6771 37.2165 57.1943C33.3504 55.2685 29.138 54.1354 24.8275 53.8619V25.1034L45.5171 11.3103L66.2067 25.1034V59.1171C65.7078 59.1591 65.218 59.2767 64.7543 59.466L55.8109 63.2633C55.8369 63.096 55.854 62.9276 55.8619 62.7584C55.8619 60.0923 53.7006 57.9309 51.0344 57.9309ZM75.7504 27.8552C75.4562 27.8552 75.1688 27.7684 74.924 27.6054L46.2827 8.50753C45.8192 8.19823 45.2151 8.19823 44.7516 8.50753L16.1103 27.6027C15.4248 28.059 14.4993 27.8732 14.0429 27.1877C13.88 26.9428 13.7931 26.6554 13.7931 26.3613C13.7922 25.8625 14.0413 25.3963 14.4565 25.1199L45.5171 4.41375L76.5778 25.1227C76.9929 25.3992 77.2421 25.8653 77.2412 26.364C77.2414 27.1875 76.5738 27.8551 75.7504 27.8552Z" fill="#3766CC"/>
<path d="M13.7933 66.2068H11.0347V68.9654H13.7933V66.2068Z" fill="#3766CC"/>
</svg>
