<svg width="90" height="90" viewBox="0 0 90 90" fill="none" xmlns="http://www.w3.org/2000/svg">
<circle cx="20" cy="70" r="20" fill="white"/>
<g clip-path="url(#clip0_807_15)">
<path d="M41.1667 14.6666H43.8334C43.8334 14.15 43.9977 13.9521 44.3577 13.5201C44.8397 12.9415 45.5001 12.15 45.5001 10.6666C45.5001 9.18329 44.8397 8.39163 44.3577 7.81296C43.9977 7.38079 43.8334 7.18329 43.8334 6.66663C43.8334 6.14996 43.9976 5.95229 44.3577 5.52046C44.8397 4.94163 45.5001 4.14996 45.5001 2.66663H42.8334C42.8334 3.18329 42.6692 3.38096 42.3091 3.81279C41.8271 4.39129 41.1667 5.18329 41.1667 6.66663C41.1667 8.14996 41.8271 8.94163 42.3091 9.52029C42.6691 9.95196 42.8334 10.15 42.8334 10.6666C42.8334 11.1833 42.6691 11.3811 42.3091 11.8131C41.8271 12.3916 41.1667 13.1833 41.1667 14.6666Z" fill="#3766CC"/>
<path d="M68.6667 14.6666H71.3334C71.3334 14.15 71.4977 13.9521 71.8577 13.5201C72.3397 12.9415 73.0001 12.15 73.0001 10.6666C73.0001 9.18329 72.3397 8.39163 71.8577 7.81296C71.4977 7.38079 71.3334 7.18329 71.3334 6.66663C71.3334 6.14996 71.4976 5.95229 71.8577 5.52046C72.3397 4.94163 73.0001 4.14996 73.0001 2.66663H70.3334C70.3334 3.18329 70.1692 3.38096 69.8091 3.81279C69.3271 4.39129 68.6667 5.18329 68.6667 6.66663C68.6667 8.14996 69.3271 8.94163 69.8091 9.52029C70.1691 9.95196 70.3334 10.15 70.3334 10.6666C70.3334 11.1833 70.1691 11.3811 69.8091 11.8131C69.3271 12.3916 68.6667 13.1833 68.6667 14.6666Z" fill="#3766CC"/>
<path d="M27.3333 12H29.9999C29.9999 11.4833 30.1643 11.2855 30.5243 10.8535C31.0063 10.2748 31.6666 9.48333 31.6666 8C31.6666 6.51667 31.0063 5.725 30.5243 5.14633C30.1643 4.71417 29.9999 4.51667 29.9999 4C29.9999 3.48333 30.1641 3.28567 30.5243 2.85383C31.0063 2.275 31.6666 1.48333 31.6666 0H28.9999C28.9999 0.516667 28.8358 0.714333 28.4756 1.14617C27.9936 1.72467 27.3333 2.51667 27.3333 4C27.3333 5.48333 27.9936 6.275 28.4756 6.85367C28.8356 7.28533 28.9999 7.48333 28.9999 8C28.9999 8.51667 28.8356 8.7145 28.4756 9.1465C27.9936 9.725 27.3333 10.5167 27.3333 12Z" fill="#3766CC"/>
<path d="M54.8333 12H57.4999C57.4999 11.4833 57.6643 11.2855 58.0243 10.8535C58.5063 10.2748 59.1666 9.48333 59.1666 8C59.1666 6.51667 58.5063 5.725 58.0243 5.14633C57.6643 4.71417 57.4999 4.51667 57.4999 4C57.4999 3.48333 57.6641 3.28567 58.0243 2.85383C58.5063 2.275 59.1666 1.48333 59.1666 0H56.4999C56.4999 0.516667 56.3358 0.714333 55.9756 1.14617C55.4936 1.72467 54.8333 2.51667 54.8333 4C54.8333 5.48333 55.4936 6.275 55.9756 6.85367C56.3356 7.28533 56.4999 7.48333 56.4999 8C56.4999 8.51667 56.3356 8.7145 55.9756 9.1465C55.4936 9.725 54.8333 10.5167 54.8333 12Z" fill="#3766CC"/>
<path d="M87.0001 17.3333H86.0001V14.6666H83.3334V17.3333H80.6667V14.6666H78.0001V17.3333H20.6667V20H87.0001C87.0885 20 87.1733 20.0351 87.2358 20.0976C87.2983 20.1601 87.3334 20.2449 87.3334 20.3333V71.6666C87.3334 71.755 87.2983 71.8398 87.2358 71.9023C87.1733 71.9648 87.0885 72 87.0001 72H31.3334V74.6666H76.9591L78.0399 78.99C78.112 79.2784 78.2785 79.5345 78.5129 79.7175C78.7472 79.9005 79.0361 80 79.3334 80H84.6667C84.9641 80 85.2529 79.9005 85.4873 79.7175C85.7217 79.5345 85.8881 79.2784 85.9603 78.99L87.0411 74.6666C87.8293 74.6549 88.5814 74.3338 89.1349 73.7726C89.6885 73.2113 89.9993 72.4549 90.0001 71.6666V20.3333C89.9992 19.5379 89.6828 18.7754 89.1204 18.213C88.558 17.6506 87.7954 17.3342 87.0001 17.3333ZM83.6257 77.3333H80.3744L79.7077 74.6666H84.2924L83.6257 77.3333Z" fill="#3766CC"/>
<path d="M12.6667 71.6667V20.3334C12.6667 20.245 12.7018 20.1602 12.7643 20.0977C12.8268 20.0352 12.9116 20 13 20H18V17.3334H13C12.2046 17.3343 11.4421 17.6507 10.8797 18.2131C10.3173 18.7755 10.0009 19.538 10 20.3334V71.6667C10.0008 72.455 10.3116 73.2114 10.8651 73.7727C11.4187 74.3339 12.1708 74.655 12.959 74.6667L14.0398 78.9904C14.112 79.2788 14.2785 79.5348 14.5129 79.7178C14.7472 79.9007 15.036 80.0001 15.3333 80H20.6667C20.964 80 21.2528 79.9006 21.4872 79.7176C21.7216 79.5346 21.8881 79.2785 21.9602 78.99L23.041 74.6667H28.6667V72H13C12.9116 72 12.8268 71.9649 12.7643 71.9024C12.7018 71.8399 12.6667 71.7551 12.6667 71.6667ZM20.2923 74.6667L19.6257 77.3334H16.3743L15.7077 74.6667H20.2923Z" fill="#3766CC"/>
<path d="M58 66.6666H42V69.3333H58V66.6666Z" fill="#3766CC"/>
<path d="M84.6666 24C84.6666 23.6463 84.5261 23.3072 84.2761 23.0571C84.026 22.8071 83.6869 22.6666 83.3333 22.6666H16.6666C16.313 22.6666 15.9738 22.8071 15.7238 23.0571C15.4737 23.3072 15.3333 23.6463 15.3333 24V62.6666C15.3333 63.0202 15.4737 63.3594 15.7238 63.6094C15.9738 63.8595 16.313 64 16.6666 64H73.9999V61.3333H17.9999V30.6666H20.6666C21.0201 30.667 21.359 30.8076 21.609 31.0576C21.8589 31.3076 21.9995 31.6465 21.9999 32V54.6666C21.9999 55.7275 22.4213 56.7449 23.1715 57.495C23.9216 58.2452 24.9391 58.6666 25.9999 58.6666C27.0608 58.6666 28.0782 58.2452 28.8283 57.495C29.5785 56.7449 29.9999 55.7275 29.9999 54.6666V32C29.9999 31.6463 30.1404 31.3072 30.3904 31.0571C30.6405 30.8071 30.9796 30.6666 31.3333 30.6666C31.6869 30.6666 32.026 30.8071 32.2761 31.0571C32.5261 31.3072 32.6666 31.6463 32.6666 32V54.6666C32.6666 55.7275 33.088 56.7449 33.8382 57.495C34.5883 58.2452 35.6057 58.6666 36.6666 58.6666C37.7275 58.6666 38.7449 58.2452 39.495 57.495C40.2452 56.7449 40.6666 55.7275 40.6666 54.6666V32C40.6666 31.6463 40.8071 31.3072 41.0571 31.0571C41.3072 30.8071 41.6463 30.6666 41.9999 30.6666C42.3535 30.6666 42.6927 30.8071 42.9427 31.0571C43.1928 31.3072 43.3333 31.6463 43.3333 32V54.6666C43.3333 55.7275 43.7547 56.7449 44.5048 57.495C45.255 58.2452 46.2724 58.6666 47.3333 58.6666C48.3941 58.6666 49.4115 58.2452 50.1617 57.495C50.9118 56.7449 51.3333 55.7275 51.3333 54.6666V32C51.3333 31.6463 51.4737 31.3072 51.7238 31.0571C51.9738 30.8071 52.313 30.6666 52.6666 30.6666C53.0202 30.6666 53.3593 30.8071 53.6094 31.0571C53.8594 31.3072 53.9999 31.6463 53.9999 32V54.6666C53.9999 55.7275 54.4213 56.7449 55.1715 57.495C55.9216 58.2452 56.9391 58.6666 57.9999 58.6666C59.0608 58.6666 60.0782 58.2452 60.8283 57.495C61.5785 56.7449 61.9999 55.7275 61.9999 54.6666V32C61.9999 31.6463 62.1404 31.3072 62.3904 31.0571C62.6405 30.8071 62.9796 30.6666 63.3333 30.6666C63.6869 30.6666 64.026 30.8071 64.2761 31.0571C64.5261 31.3072 64.6666 31.6463 64.6666 32V54.6666C64.6666 55.7275 65.088 56.7449 65.8382 57.495C66.5883 58.2452 67.6057 58.6666 68.6666 58.6666C69.7275 58.6666 70.7449 58.2452 71.495 57.495C72.2452 56.7449 72.6666 55.7275 72.6666 54.6666V32C72.6666 31.6463 72.8071 31.3072 73.0571 31.0571C73.3072 30.8071 73.6463 30.6666 73.9999 30.6666C74.3535 30.6666 74.6927 30.8071 74.9427 31.0571C75.1928 31.3072 75.3333 31.6463 75.3333 32V54C75.3347 55.2372 75.8268 56.4234 76.7016 57.2982C77.5765 58.1731 78.7627 58.6652 79.9999 58.6666H81.9999V61.3333H76.6666V64H83.3333C83.6869 64 84.026 63.8595 84.2761 63.6094C84.5261 63.3594 84.6666 63.0202 84.6666 62.6666V24ZM81.9999 56H79.9999C79.4697 55.9994 78.9613 55.7885 78.5863 55.4135C78.2114 55.0386 78.0005 54.5302 77.9999 54V32C77.9999 30.9391 77.5785 29.9217 76.8283 29.1715C76.0782 28.4214 75.0608 28 73.9999 28C72.9391 28 71.9216 28.4214 71.1715 29.1715C70.4213 29.9217 69.9999 30.9391 69.9999 32V54.6666C69.9999 55.0202 69.8594 55.3594 69.6094 55.6094C69.3593 55.8595 69.0202 56 68.6666 56C68.313 56 67.9738 55.8595 67.7238 55.6094C67.4737 55.3594 67.3333 55.0202 67.3333 54.6666V32C67.3333 30.9391 66.9118 29.9217 66.1617 29.1715C65.4115 28.4214 64.3941 28 63.3333 28C62.2724 28 61.255 28.4214 60.5048 29.1715C59.7547 29.9217 59.3333 30.9391 59.3333 32V54.6666C59.3333 55.0202 59.1928 55.3594 58.9427 55.6094C58.6927 55.8595 58.3535 56 57.9999 56C57.6463 56 57.3072 55.8595 57.0571 55.6094C56.8071 55.3594 56.6666 55.0202 56.6666 54.6666V32C56.6666 30.9391 56.2452 29.9217 55.495 29.1715C54.7449 28.4214 53.7275 28 52.6666 28C51.6057 28 50.5883 28.4214 49.8382 29.1715C49.088 29.9217 48.6666 30.9391 48.6666 32V54.6666C48.6666 55.0202 48.5261 55.3594 48.2761 55.6094C48.026 55.8595 47.6869 56 47.3333 56C46.9796 56 46.6405 55.8595 46.3904 55.6094C46.1404 55.3594 45.9999 55.0202 45.9999 54.6666V32C45.9999 30.9391 45.5785 29.9217 44.8283 29.1715C44.0782 28.4214 43.0608 28 41.9999 28C40.9391 28 39.9216 28.4214 39.1715 29.1715C38.4213 29.9217 37.9999 30.9391 37.9999 32V54.6666C37.9999 55.0202 37.8594 55.3594 37.6094 55.6094C37.3593 55.8595 37.0202 56 36.6666 56C36.313 56 35.9738 55.8595 35.7238 55.6094C35.4737 55.3594 35.3333 55.0202 35.3333 54.6666V32C35.3333 30.9391 34.9118 29.9217 34.1617 29.1715C33.4115 28.4214 32.3941 28 31.3333 28C30.2724 28 29.255 28.4214 28.5048 29.1715C27.7547 29.9217 27.3333 30.9391 27.3333 32V54.6666C27.3333 55.0202 27.1928 55.3594 26.9427 55.6094C26.6927 55.8595 26.3535 56 25.9999 56C25.6463 56 25.3072 55.8595 25.0571 55.6094C24.8071 55.3594 24.6666 55.0202 24.6666 54.6666V32C24.6654 30.9395 24.2436 29.9227 23.4937 29.1728C22.7438 28.423 21.7271 28.0012 20.6666 28H17.9999V25.3333H81.9999V56Z" fill="#3766CC"/>
<path d="M84.6667 66.6666H82V69.3333H84.6667V66.6666Z" fill="#3766CC"/>
<path d="M79.3334 66.6666H76.6667V69.3333H79.3334V66.6666Z" fill="#3766CC"/>
<path d="M17.9999 66.6666H15.3333V69.3333H17.9999V66.6666Z" fill="#3766CC"/>
<path d="M23.3334 66.6666H20.6667V69.3333H23.3334V66.6666Z" fill="#3766CC"/>
</g>
<defs>
<clipPath id="clip0_807_15">
<rect width="80" height="80" fill="white" transform="translate(10)"/>
</clipPath>
</defs>
</svg>
