<svg width="90" height="90" viewBox="0 0 90 90" fill="none" xmlns="http://www.w3.org/2000/svg">
<circle cx="20" cy="20" r="20" fill="white"/>
<g clip-path="url(#clip0_807_16)">
<path d="M16.7777 43.3347H18.068V58.001C18.0698 59.4731 19.2624 60.6657 20.7345 60.6675H22.6217L14.658 86.5487C14.409 87.358 14.5592 88.2369 15.0621 88.9174C15.565 89.598 16.3609 90.0002 17.2074 90.0002H82.9269C83.7729 90.0002 84.5694 89.5986 85.0723 88.9181C85.5746 88.2375 85.7247 87.3587 85.4763 86.5493L77.5127 60.6675H79.3992C80.8713 60.6657 82.0645 59.4731 82.0658 58.001V43.3347H83.3566C84.407 43.3371 85.3622 42.7249 85.7992 41.7692C86.2691 40.7804 86.1159 39.608 85.4086 38.773L78.7877 30.9681C77.9289 30.0123 76.5239 29.7761 75.3997 30.398V29.5619C75.404 28.2631 74.7887 27.04 73.7432 26.2697L52.4225 10.7856C51.0309 9.74127 49.1181 9.73822 47.7235 10.777L26.3752 26.2819C25.3377 27.0522 24.7285 28.2698 24.7347 29.5619V30.3992C23.6116 29.7767 22.2085 30.0111 21.3491 30.9644L14.7179 38.7822C14.016 39.6165 13.8664 40.7841 14.3352 41.7685C14.7716 42.7243 15.7267 43.3365 16.7777 43.3347ZM25.4121 60.6675H26.0676C27.5397 60.6657 28.7323 59.4731 28.7342 58.001V55.3344H31.0022C31.0016 56.7486 31.5631 58.1053 32.5634 59.1057C33.5631 60.1054 34.9199 60.6675 36.334 60.6675H66.1354C67.2401 60.6675 68.1355 61.5629 68.1355 62.6676C68.1355 63.7723 67.2401 64.6677 66.1354 64.6677H33.0413C30.0958 64.6677 27.7082 67.0553 27.7082 70.0008C27.7082 72.9462 30.0958 75.3338 33.0413 75.3338H68.3711C70.2119 75.3338 71.7041 76.8261 71.7041 78.6669C71.7041 80.5077 70.2119 82.0005 68.3711 82.0005H29.1339C26.6365 81.9902 24.4692 83.7235 23.9315 86.163L23.6678 87.3336H17.2074L25.4121 60.6675ZM82.9269 87.3336H26.4009L26.5327 86.7483C26.8019 85.5283 27.8852 84.6616 29.1339 84.6671H68.3711C71.6846 84.6671 74.3707 81.9804 74.3707 78.6669C74.3707 75.3534 71.6846 72.6673 68.3711 72.6673H33.0413C31.5686 72.6673 30.3747 71.4735 30.3747 70.0008C30.3747 68.528 31.5686 67.3342 33.0413 67.3342H66.1354C68.7129 67.3342 70.802 65.245 70.802 62.6676C70.802 60.0902 68.7129 58.001 66.1354 58.001H36.334C34.8613 58.001 33.6675 56.8072 33.6675 55.3344H71.3996V58.001C71.4014 59.4731 72.594 60.6657 74.0661 60.6675H74.7216L82.9269 87.3336ZM55.4003 52.6679H44.7341V38.0016C44.7353 36.5294 45.9285 35.3368 47.4006 35.335H52.7337C54.2058 35.3368 55.3984 36.5294 55.4003 38.0016V52.6679ZM76.751 32.6892L83.3743 40.4984L84.3911 39.6354L83.3566 40.6681H80.7328C79.9961 40.6681 79.3992 41.265 79.3992 42.0017V58.001H74.0661V42.0017C74.0661 41.265 73.4692 40.6681 72.7331 40.6681H72.5934L70.1038 40.6706L70.091 40.4984L76.751 32.6892ZM27.9584 28.4266L49.3024 12.926C49.7583 12.5793 50.3907 12.5824 50.8429 12.9345L72.1594 28.415C72.5226 28.6842 72.7356 29.1102 72.7331 29.5619V33.2605L68.0494 38.7822C67.3476 39.6165 67.198 40.7841 67.6668 41.7685C68.1038 42.7243 69.0583 43.3365 70.1093 43.3347H71.3996V52.6679H58.0668V38.0016C58.0638 35.0573 55.678 32.6715 52.7337 32.6685H47.4006C44.4564 32.6715 42.0706 35.0573 42.0669 38.0016V52.6679H28.7342V43.3347H30.0244C31.0754 43.3371 32.0306 42.7249 32.4676 41.7692C32.9369 40.7804 32.7843 39.608 32.077 38.773L27.4012 33.2611V29.5619C27.3969 29.1169 27.6038 28.6958 27.9584 28.4266ZM23.4194 32.6892L30.0427 40.4984L31.0595 39.6354L30.0244 40.6681H27.4012C26.6645 40.6681 26.0676 41.265 26.0676 42.0017V58.001H20.7345V42.0017C20.7345 41.265 20.1376 40.6681 19.4009 40.6681H19.2618L16.7722 40.6706L16.7588 40.4984L23.4194 32.6892Z" fill="#3766CC"/>
<path d="M32.7355 32.6684C33.0291 32.6684 33.3141 32.5714 33.5467 32.3926L46.9862 22.0596C47.5703 21.6104 47.6796 20.7736 47.231 20.1895C46.7824 19.6054 45.945 19.4962 45.3615 19.9448L31.9213 30.2777C31.4685 30.6256 31.2878 31.2238 31.4715 31.7645C31.6559 32.3059 32.1643 32.669 32.7355 32.6684Z" fill="#3766CC"/>
<path d="M51.4003 18.0022C51.4003 18.7383 50.8033 19.3358 50.0673 19.3358C49.3306 19.3358 48.7336 18.7383 48.7336 18.0022C48.7336 17.2661 49.3306 16.6686 50.0673 16.6686C50.8033 16.6686 51.4003 17.2661 51.4003 18.0022Z" fill="#3766CC"/>
</g>
<defs>
<clipPath id="clip0_807_16">
<rect width="80" height="80" fill="white" transform="translate(10 10)"/>
</clipPath>
</defs>
</svg>
