<svg width="90" height="90" viewBox="0 0 90 90" fill="none" xmlns="http://www.w3.org/2000/svg">
<circle cx="70" cy="70" r="20" fill="white"/>
<g clip-path="url(#clip0_807_17)">
<path d="M1.33362 80.1546H65.3335C66.0702 80.1546 66.6671 79.5576 66.6671 78.8215V66.8214H76C76.7367 66.8214 77.3336 66.2244 77.3336 65.4884V52.1546C77.3336 51.4185 76.7367 50.8216 76 50.8216H66.6671V38.8214C66.6671 38.0847 66.0702 37.4878 65.3335 37.4878H62.8866C63.0746 36.6162 62.8756 35.7055 62.3415 34.9914L56.3167 26.9604L59.0987 24.8736C60.3347 23.9483 61.025 22.4651 60.9377 20.9234L60.804 18.5223C60.7674 17.871 61.0592 17.2448 61.581 16.8536L64.3624 14.7674L65.5331 16.3274C65.7449 16.61 66.0604 16.7974 66.4108 16.8475C66.473 16.856 66.5359 16.8609 66.5993 16.8603C66.888 16.8609 67.1688 16.7669 67.3995 16.5935L78.4005 8.34095C80.1669 7.01587 80.5252 4.50915 79.2001 2.74218L78.4591 1.7534C77.1322 -0.0111273 74.6267 -0.368184 72.8591 0.955062L61.8593 9.20704C61.2704 9.64894 61.1507 10.4851 61.5926 11.0741L62.7627 12.6342L59.9813 14.721C58.7453 15.6463 58.0544 17.1288 58.1423 18.6706L58.2753 21.0717C58.3126 21.723 58.0208 22.3498 57.499 22.7404L54.7176 24.8272L48.6922 16.7962C48.0617 15.9423 47.0375 15.4717 45.9785 15.5492C44.9684 15.6225 44.0657 16.2084 43.5866 17.1014L32.6307 37.4878H1.33362C0.596926 37.4878 0 38.0847 0 38.8214V52.1546C0 52.8913 0.596926 53.4882 1.33362 53.4882H10.6665V64.1547H1.33362C0.596926 64.1547 0 64.7517 0 65.4884V78.8215C0 79.5576 0.596926 80.1546 1.33362 80.1546ZM74.4595 3.08764C75.0479 2.64574 75.8834 2.76476 76.3259 3.35375L77.0669 4.34253C77.5082 4.93152 77.3886 5.76648 76.8002 6.20838L66.8655 13.6614L64.5248 10.5401L74.4595 3.08764ZM24.0003 66.8214H42.6668V77.4879H24.0003V66.8214ZM34.6669 53.4882H53.3333V64.1547H34.6669V53.4882ZM64.0005 77.4879H45.3334V66.8214H64.0005V77.4879ZM74.667 64.1547H55.9999V53.4882H74.667V64.1547ZM64.0005 50.8216H45.3334V43.0573L58.9809 40.1544H64.0005V50.8216ZM45.9364 18.3648C45.9816 18.2714 46.0756 18.2116 46.1794 18.2085L46.2056 18.2073C46.3472 18.2098 46.4784 18.28 46.559 18.3959L52.5832 26.427L47.0827 30.5536C46.4937 30.9954 46.3741 31.831 46.816 32.4206C47.2579 33.0096 48.0934 33.1286 48.683 32.6873L54.1835 28.5607L60.2083 36.5918C60.3042 36.709 60.3322 36.8671 60.2816 37.0093C60.2498 37.1081 60.1662 37.1808 60.0637 37.1991L33.6116 42.8241C33.4474 42.8497 33.2826 42.7795 33.188 42.6428C33.0818 42.5147 33.0604 42.3364 33.133 42.1863L45.9364 18.3648ZM31.0554 44.2432C31.7659 45.2204 32.9853 45.6861 34.1664 45.4321L42.6668 43.6243V50.8216H24.0003V40.1544H31.197L30.7838 40.9235C30.2125 41.9873 30.3193 43.2868 31.0554 44.2432ZM2.66664 45.4883H5.33327C6.06997 45.4883 6.66689 44.8914 6.66689 44.1547C6.66689 43.4186 6.06997 42.8217 5.33327 42.8217H2.66664V40.1544H21.3337V50.8216H2.66664V45.4883ZM13.3332 53.4882H32.0002V64.1547H13.3332V53.4882ZM2.66664 66.8214H21.3337V77.4879H2.66664V66.8214Z" fill="#3766CC"/>
<path d="M17.3334 44.1547C17.3334 43.4186 16.7365 42.8217 15.9998 42.8217H10.6665C9.93042 42.8217 9.3335 43.4186 9.3335 44.1547C9.3335 44.8914 9.93042 45.4883 10.6665 45.4883H15.9998C16.7365 45.4883 17.3334 44.8914 17.3334 44.1547Z" fill="#3766CC"/>
</g>
<defs>
<clipPath id="clip0_807_17">
<rect width="80" height="80" fill="white"/>
</clipPath>
</defs>
</svg>
