<svg width="90" height="90" viewBox="0 0 90 90" fill="none" xmlns="http://www.w3.org/2000/svg">
<circle cx="20" cy="20" r="20" fill="white"/>
<g clip-path="url(#clip0_807_18)">
<path d="M88.8144 43.6635L80.5401 41.6022L77.5325 34.345L81.9251 27.0377C82.2948 26.4228 82.1981 25.6352 81.6907 25.1279L74.8719 18.309C74.3645 17.8017 73.5767 17.705 72.962 18.0746L65.6548 22.4673L58.398 19.4599L56.3366 11.1858C56.1631 10.4896 55.5378 10.001 54.8205 10.001H45.1789C44.4614 10.001 43.8362 10.4896 43.6626 11.1858L41.6013 19.4599L34.344 22.4676L27.0367 18.075C26.4217 17.7053 25.6341 17.8018 25.1269 18.3093L18.3082 25.128C17.8009 25.6354 17.7043 26.423 18.0738 27.0378L22.4664 34.3451L19.459 41.6022L11.1848 43.6635C10.4886 43.8369 10 44.4622 10 45.1795V54.8212C10 55.5387 10.4886 56.1638 11.1848 56.3374L19.4591 58.3986L22.4668 65.6559L18.0741 72.9632C17.7045 73.578 17.8012 74.3657 18.3085 74.873L25.1274 81.6918C25.6345 82.1992 26.4223 82.2957 27.0372 81.9262L34.3444 77.5336L41.6017 80.5412L43.663 88.8155C43.8364 89.5118 44.4617 90.0003 45.1792 90.0003H54.8208C55.5383 90.0003 56.1635 89.5118 56.337 88.8155L58.3983 80.5412L65.6556 77.5336L72.9628 81.9262C73.5777 82.2957 74.3653 82.1992 74.8727 81.6918L81.6915 74.873C82.1988 74.3657 82.2954 73.578 81.9259 72.9632L77.5332 65.6559L80.5409 58.3986L88.8152 56.3374C89.5114 56.164 90 55.5387 90 54.8212V45.1795C89.9992 44.4622 89.5106 43.8369 88.8144 43.6635ZM86.8743 53.6002L79.0206 55.5568C78.54 55.6766 78.1445 56.0171 77.9548 56.4747L74.3441 65.1875C74.1544 65.6453 74.1931 66.1659 74.4483 66.5906L78.6178 73.5268L73.5258 78.6187L66.5896 74.4492C66.1649 74.1941 65.6441 74.1552 65.1865 74.345L56.4738 77.9558C56.0161 78.1455 55.6756 78.5409 55.5558 79.0215L53.5994 86.8751H46.3998L44.4433 79.0214C44.3234 78.5408 43.9829 78.1453 43.5253 77.9556L34.8126 74.3449C34.3546 74.1552 33.834 74.1939 33.4095 74.4491L26.4733 78.6186L21.3813 73.5268L25.5508 66.5906C25.8061 66.1659 25.8447 65.6453 25.655 65.1875L22.0443 56.4747C21.8546 56.0171 21.4591 55.6766 20.9785 55.5568L13.125 53.6002V46.4006L20.9786 44.4441C21.4593 44.3242 21.8547 43.9838 22.0444 43.5261L25.6552 34.8134C25.8448 34.3556 25.8061 33.835 25.5509 33.4103L21.3813 26.4741L26.4733 21.3821L33.4095 25.5516C33.834 25.8068 34.3549 25.8457 34.8126 25.6558L43.5253 22.0451C43.9829 21.8554 44.3234 21.4599 44.4433 20.9793L46.3998 13.1258H53.5994L55.556 20.9795C55.6758 21.4601 56.0163 21.8555 56.4739 22.0452L65.1866 25.656C65.6445 25.8457 66.1652 25.8069 66.5898 25.5518L73.5259 21.3823L78.6179 26.4743L74.4484 33.4104C74.1931 33.8351 74.1545 34.3557 74.3442 34.8135L77.955 43.5263C78.1446 43.9839 78.5401 44.3244 79.0207 44.4442L86.8743 46.4006V53.6002Z" fill="#3766CC"/>
<path d="M60.3017 69.3671C59.952 68.578 59.0284 68.2222 58.24 68.5719C55.623 69.7322 52.8349 70.2949 50.0616 70.2947C44.757 70.2945 39.5094 68.2355 35.6366 64.3627C29.0781 57.8042 27.7876 47.6538 32.4984 39.6792C32.9373 38.9363 32.6907 37.9781 31.9477 37.5392C31.2052 37.1003 30.2467 37.3467 29.8078 38.0899C24.3714 47.2927 25.8597 59.0051 33.4268 66.5725C36.8408 69.9864 41.1495 72.2352 45.8871 73.0755C47.2631 73.3195 48.6452 73.4406 50.0221 73.4406C53.2772 73.4406 56.498 72.7628 59.5067 71.4288C60.2954 71.0789 60.6515 70.156 60.3017 69.3671Z" fill="#3766CC"/>
<path d="M35.6549 33.4143C35.0461 32.8025 34.0568 32.8001 33.4452 33.4089L33.4296 33.4245C32.8179 34.0332 32.8155 35.0226 33.4241 35.6341C33.7294 35.9412 34.1305 36.0946 34.5316 36.0946C34.9302 36.0946 35.3289 35.9431 35.6338 35.6396L35.6494 35.624C36.2611 35.0151 36.2635 34.0259 35.6549 33.4143Z" fill="#3766CC"/>
<path d="M66.5722 33.427C62.1454 29.0004 56.2598 26.5625 49.9996 26.5625C46.6971 26.5625 43.499 27.238 40.4939 28.5703C39.705 28.9201 39.3489 29.8431 39.6987 30.632C40.0486 31.4209 40.9715 31.777 41.7604 31.4271C44.3641 30.2728 47.1362 29.6875 49.9996 29.6875C55.4251 29.6875 60.526 31.8003 64.3625 35.6368C70.9211 42.1953 72.2115 52.3457 67.5008 60.3203C67.0619 61.0632 67.3085 62.0214 68.0514 62.4603C68.3008 62.6076 68.5744 62.6778 68.8447 62.6778C69.3791 62.6778 69.8998 62.4032 70.1914 61.9096C75.6278 52.7068 74.1395 40.9944 66.5722 33.427Z" fill="#3766CC"/>
<path d="M66.575 64.3654C65.9663 63.7536 64.9768 63.7513 64.3654 64.36L64.3498 64.3757C63.738 64.9844 63.7357 65.9738 64.3443 66.5853C64.6496 66.8922 65.0507 67.0456 65.4518 67.0456C65.8504 67.0456 66.2491 66.8941 66.5539 66.5907L66.5696 66.575C67.1813 65.9664 67.1836 64.9769 66.575 64.3654Z" fill="#3766CC"/>
<path d="M65.2298 41.4418C65.057 41.0034 64.6976 40.6709 64.2576 40.5284C63.0636 40.1092 56.8574 38.2718 51.8574 43.2718C51.0853 44.044 50.4765 44.8441 49.9996 45.6493C49.5228 44.844 48.914 44.0438 48.1419 43.2718C43.1614 38.2915 36.9848 40.0948 35.7418 40.5282C35.3017 40.6707 34.9423 41.0032 34.7693 41.4418C34.6564 41.7282 32.0653 48.5194 37.4798 53.9339C40.2168 56.6709 43.3046 57.362 45.7272 57.362C46.7864 57.362 47.7178 57.2296 48.4373 57.0784V62.9855C48.4373 63.8485 49.1368 64.548 49.9998 64.548C50.8628 64.548 51.5623 63.8485 51.5623 62.9855V57.0784C52.2817 57.2296 53.2129 57.362 54.2723 57.362C56.6946 57.362 59.783 56.6704 62.5197 53.9339C67.9338 48.5195 65.3428 41.7284 65.2298 41.4418ZM48.4347 52.0176L43.9158 47.4994C43.3055 46.8893 42.3161 46.8893 41.7061 47.4994C41.096 48.1097 41.096 49.0989 41.7061 49.7091L46.2244 54.2267C44.387 54.3145 41.8771 53.9118 39.6894 51.7242C36.5593 48.5942 37.082 44.8024 37.4688 43.2718C39.1099 42.8595 42.8444 42.394 45.932 45.4818C47.7836 47.3333 48.3565 49.4159 48.4359 51.1256C48.4269 51.4139 48.4281 51.694 48.4375 51.9644C48.4367 51.9823 48.4356 51.9998 48.4347 52.0176ZM60.3097 51.7242C58.1214 53.9126 55.6107 54.3148 53.7745 54.2268L58.293 49.7089C58.9032 49.0988 58.9033 48.1096 58.293 47.4992C57.683 46.8893 56.6936 46.8889 56.0833 47.4992L51.5648 52.0172C51.5639 51.9979 51.5626 51.9792 51.5618 51.9598C51.571 51.6917 51.5721 51.4141 51.5632 51.1283C51.642 49.4177 52.2148 47.3339 54.0671 45.4818C57.153 42.3957 60.885 42.859 62.5277 43.2712C62.9089 44.7996 63.4278 48.6061 60.3097 51.7242ZM64.0662 40.4796C64.1601 40.4973 64.2309 40.5193 64.2575 40.5284C64.1953 40.5082 64.1314 40.492 64.0662 40.4796Z" fill="#3766CC"/>
</g>
<defs>
<clipPath id="clip0_807_18">
<rect width="80" height="80" fill="white" transform="translate(10 10)"/>
</clipPath>
</defs>
</svg>
