<svg width="90" height="90" viewBox="0 0 90 90" fill="none" xmlns="http://www.w3.org/2000/svg">
<circle cx="70" cy="20" r="20" fill="white"/>
<path d="M62.055 55.2629C54.6484 50.4422 44.7361 52.5385 39.9153 59.9451C38.2252 62.5419 37.3253 65.5733 37.325 68.6717C37.3205 71.7711 38.22 74.8043 39.9132 77.4004L42.148 75.9443C38.132 69.7713 39.8807 61.5114 46.0537 57.4954C52.2267 53.4795 60.4865 55.2281 64.5025 61.4011C68.5185 67.5741 66.7699 75.8339 60.5969 79.8499C56.1758 82.7262 50.4747 82.7262 46.0537 79.8499L44.5976 82.0848C52.0042 86.9055 61.9165 84.8092 66.7372 77.4026C71.5579 69.9958 69.4616 60.0837 62.055 55.2629Z" fill="#3766CC"/>
<path d="M59.7174 64.395L50.6594 73.4531L47.6018 70.3955L45.7163 72.281L49.7166 76.2813C49.9667 76.5313 50.3057 76.672 50.6594 76.672C51.0131 76.672 51.3521 76.5313 51.6021 76.2813L61.6029 66.2805L59.7174 64.395Z" fill="#3766CC"/>
<path d="M31.9911 55.337H11.9895V58.0039H31.9911V55.337Z" fill="#3766CC"/>
<path d="M34.6581 50.0032H19.9902V52.6701H34.6581V50.0032Z" fill="#3766CC"/>
<path d="M39.9918 43.3361H11.9895V46.0029H39.9918V43.3361Z" fill="#3766CC"/>
<path d="M51.9928 38.0023H19.9902V40.6692H51.9928V38.0023Z" fill="#3766CC"/>
<path d="M29.3242 67.338H11.9895V70.0049H29.3242V67.338Z" fill="#3766CC"/>
<path d="M29.3243 62.0043H19.9902V64.6711H29.3243V62.0043Z" fill="#3766CC"/>
<path d="M31.9911 79.339H11.9895V82.0059H31.9911V79.339Z" fill="#3766CC"/>
<path d="M29.3243 74.0052H19.9902V76.6721H29.3243V74.0052Z" fill="#3766CC"/>
<path d="M60.7463 48.6905C60.0626 48.4378 59.3662 48.2204 58.6602 48.0391V22.001H65.3274C66.0638 22.001 66.6608 21.4039 66.6608 20.6675V15.3338C66.6608 12.388 64.2728 10 61.3271 10H10.6563C7.71054 10 5.32251 12.388 5.32251 15.3338V87.3396C5.32251 88.076 5.91956 88.6731 6.65595 88.6731H45.9725C57.0134 92.7527 69.271 87.1096 73.3507 76.0687C77.4304 65.0278 71.7872 52.7701 60.7463 48.6905ZM58.6602 15.3338C58.6602 13.8608 59.8541 12.6669 61.3271 12.6669C62.8 12.6669 63.9939 13.8608 63.9939 15.3338V19.3341H58.6602V15.3338ZM7.98939 86.0062V15.3338C7.98939 13.8608 9.18332 12.6669 10.6563 12.6669H56.7347C56.2548 13.4741 55.9988 14.3947 55.9933 15.3338V47.5217C44.3228 46.0301 33.653 54.2818 32.1614 65.9522C31.1656 73.7434 34.5379 81.4503 40.9359 86.0062H7.98939ZM53.3264 87.3396C43.0162 87.3396 34.6582 78.9816 34.6582 68.6714C34.6582 58.3613 43.0162 50.0033 53.3264 50.0033C63.6319 50.0143 71.9836 58.3659 71.9946 68.6714C71.9946 78.9816 63.6366 87.3396 53.3264 87.3396Z" fill="#3766CC"/>
<path d="M17.3234 38.0023H14.6565V40.6692H17.3234V38.0023Z" fill="#3766CC"/>
<path d="M17.3234 50.0032H14.6565V52.6701H17.3234V50.0032Z" fill="#3766CC"/>
<path d="M17.3234 62.0043H14.6565V64.6711H17.3234V62.0043Z" fill="#3766CC"/>
<path d="M17.3234 74.0052H14.6565V76.6721H17.3234V74.0052Z" fill="#3766CC"/>
<path d="M36.2667 26C38.3285 26 40 24.2091 40 22C40 19.7909 38.3285 18 36.2667 18H29.7333V24H26V26H29.7333V28H26V30H29.7333V34H31.6V30H35.3333V28H31.6V26H36.2667ZM31.6 20H36.2667C37.2976 20 38.1333 20.8954 38.1333 22C38.1333 23.1046 37.2976 24 36.2667 24H31.6V20Z" fill="#3766CC"/>
</svg>
