<svg width="90" height="90" viewBox="0 0 90 90" fill="none" xmlns="http://www.w3.org/2000/svg">
<circle cx="20" cy="70" r="20" fill="white"/>
<g clip-path="url(#clip0_807_8)">
<path d="M89.9935 26.6667C89.9937 26.2256 89.7803 25.8022 89.3972 25.5516L50.7305 0.218238C50.2878 -0.0720951 49.7123 -0.0720951 49.2695 0.218238L10.6028 25.5516C10.2197 25.8022 10.0063 26.2256 10.0065 26.6667H10V78.6667C10 79.4031 10.5963 80.0001 11.3333 80.0001H22C22.737 80.0001 23.3333 79.4031 23.3333 78.6667V36.0001H76.6667V78.6667C76.6667 79.4031 77.263 80.0001 78 80.0001H88.6667C89.4037 80.0001 90 79.4031 90 78.6667V26.6667H89.9935ZM50 2.92724L84.1992 25.3336H15.8008L50 2.92724ZM87.3333 77.3334H79.3333V34.6667C79.3333 33.9304 78.737 33.3334 78 33.3334H22C21.263 33.3334 20.6667 33.9304 20.6667 34.6667V77.3334H12.6667V28.0001H87.3333V77.3334Z" fill="#3766CC"/>
<path d="M84.6667 37.3331H82V45.3331H84.6667V37.3331Z" fill="#3766CC"/>
<path d="M84.6667 47.35H82V50.02H84.6667V47.35Z" fill="#3766CC"/>
<path d="M84.6667 52H82V54.67H84.6667V52Z" fill="#3766CC"/>
<path d="M17.9999 37.3331H15.3333V45.3331H17.9999V37.3331Z" fill="#3766CC"/>
<path d="M17.9999 47.35H15.3333V50.02H17.9999V47.35Z" fill="#3766CC"/>
<path d="M17.9999 52H15.3333V54.67H17.9999V52Z" fill="#3766CC"/>
<path d="M71.3333 62.6665V59.9998H68.574C67.9145 54.7465 63.429 50.6665 58 50.6665H42C36.571 50.6665 32.0855 54.7465 31.426 59.9998H28.6666V62.6665H31.3333V64.2455C29.7846 64.7977 28.6666 66.2638 28.6666 67.9998V73.3332V75.9998C28.6666 78.2055 30.461 79.9998 32.6666 79.9998H35.3333C37.539 79.9998 39.3333 78.2055 39.3333 75.9998V74.6665H60.6666V75.9998C60.6666 78.2055 62.461 79.9998 64.6666 79.9998H67.3333C69.539 79.9998 71.3333 78.2055 71.3333 75.9998V73.3332V67.9998C71.3333 66.2638 70.2153 64.7977 68.6666 64.2455V62.6665H71.3333ZM34 61.3332C34 56.9217 37.5885 53.3332 42 53.3332H58C62.4115 53.3332 66 56.9217 66 61.3332V63.9998H34V61.3332ZM36.6666 75.9998C36.6666 76.7348 36.069 77.3332 35.3333 77.3332H32.6666C31.931 77.3332 31.3333 76.7348 31.3333 75.9998V74.6665H36.6666V75.9998ZM68.6666 75.9998C68.6666 76.7348 68.069 77.3332 67.3333 77.3332H64.6666C63.931 77.3332 63.3333 76.7348 63.3333 75.9998V74.6665H68.6666V75.9998ZM68.6666 70.6665V71.9998H62H38H31.3333V70.6665H35.3333V67.9998H31.3333C31.3333 67.2648 31.931 66.6665 32.6666 66.6665H67.3333C68.069 66.6665 68.6666 67.2648 68.6666 67.9998H64.6666V70.6665H68.6666Z" fill="#3766CC"/>
<path d="M74.0001 38.6665H26.0001C25.2631 38.6665 24.6667 39.2635 24.6667 39.9998V45.3332C24.6667 46.0695 25.2631 46.6665 26.0001 46.6665H74.0001C74.7371 46.6665 75.3334 46.0695 75.3334 45.3332V39.9998C75.3334 39.2635 74.7371 38.6665 74.0001 38.6665ZM72.6668 43.9998H27.3334V41.3332H72.6668V43.9998Z" fill="#3766CC"/>
</g>
<defs>
<clipPath id="clip0_807_8">
<rect width="80" height="80" fill="white" transform="translate(10)"/>
</clipPath>
</defs>
</svg>
