<svg width="90" height="90" viewBox="0 0 90 90" fill="none" xmlns="http://www.w3.org/2000/svg">
<circle cx="20" cy="70" r="20" fill="white"/>
<g clip-path="url(#clip0_807_10)">
<path d="M75.3333 77.3333V26.6666C75.3333 26.3457 75.2175 26.0355 75.0072 25.7931C74.7969 25.5506 74.5062 25.3922 74.1884 25.3468L55.5218 22.6801C55.3327 22.6531 55.14 22.6671 54.9568 22.721C54.7735 22.775 54.604 22.8676 54.4597 22.9928C54.3154 23.1179 54.1997 23.2726 54.1204 23.4464C54.041 23.6202 54 23.809 54 24V33.3333H56.6666V25.5373L72.6666 27.823V30.6666H63.3333V33.3333H72.6666V36H68.6666V38.6666H72.6666V41.3333H68.6666V44H72.6666V46.6666H68.6666V49.3333H72.6666V51.9999H68.6666V54.6666H72.6666V57.3333H68.6666V59.9999H72.6666V62.6666H68.6666V65.3333H72.6666V67.9999H68.6666V70.6666H72.6666V77.3333H64.6666V37.3333C64.6666 36.9797 64.5261 36.6405 64.2761 36.3905C64.026 36.1404 63.6869 36 63.3333 36H44.6666C44.313 36 43.9739 36.1404 43.7238 36.3905C43.4738 36.6405 43.3333 36.9797 43.3333 37.3333V61.3333H46V38.6666H62V77.3333H51.3333V65.3333C51.3333 64.9796 51.1928 64.6405 50.9428 64.3905C50.6927 64.1404 50.3536 63.9999 50 63.9999H39.3333C38.9797 63.9999 38.6405 64.1404 38.3905 64.3905C38.1404 64.6405 38 64.9796 38 65.3333V77.3333H27.3333V73.3333H34V70.6666H27.3333V67.9999H34V65.3333H27.3333V62.6666H34V59.9999H27.3333V57.3333H34V54.6666H27.3333V51.9999H40.6666V49.3333H33.041L33.7076 46.6666H40.6666V44H32.6666C32.3693 44 32.0805 44.0994 31.8461 44.2824C31.6117 44.4654 31.4453 44.7215 31.3731 45.01L30.2923 49.3333H26C25.6464 49.3333 25.3072 49.4738 25.0572 49.7238C24.8071 49.9739 24.6667 50.313 24.6667 50.6666V77.3333H10V79.9999H89.9999V77.3333H75.3333ZM40.6666 66.6666H48.6666V77.3333H40.6666V66.6666Z" fill="#3766CC"/>
<path d="M49.9999 33.3333V24C49.9999 23.6463 49.8594 23.3072 49.6094 23.0571C49.3593 22.8071 49.0202 22.6666 48.6666 22.6666H32.6666C32.313 22.6666 31.9738 22.8071 31.7238 23.0571C31.4737 23.3072 31.3333 23.6463 31.3333 24V41.3333H33.9999V25.3333H47.3332V33.3333H49.9999Z" fill="#3766CC"/>
<path d="M42 28H44.6667V30.6667H42V28Z" fill="#3766CC"/>
<path d="M36.6667 28H39.3334V30.6667H36.6667V28Z" fill="#3766CC"/>
<path d="M36.6667 33.3334H39.3334V36H36.6667V33.3334Z" fill="#3766CC"/>
<path d="M36.6667 38.6666H39.3334V41.3333H36.6667V38.6666Z" fill="#3766CC"/>
<path d="M48.6667 41.3334H52.6667V44H48.6667V41.3334Z" fill="#3766CC"/>
<path d="M55.3333 41.3334H59.3332V44H55.3333V41.3334Z" fill="#3766CC"/>
<path d="M48.6667 46.6666H52.6667V49.3333H48.6667V46.6666Z" fill="#3766CC"/>
<path d="M55.3333 46.6666H59.3332V49.3333H55.3333V46.6666Z" fill="#3766CC"/>
<path d="M48.6667 52H52.6667V54.6667H48.6667V52Z" fill="#3766CC"/>
<path d="M55.3333 52H59.3332V54.6667H55.3333V52Z" fill="#3766CC"/>
<path d="M48.6667 57.3333H52.6667V59.9999H48.6667V57.3333Z" fill="#3766CC"/>
<path d="M55.3333 57.3333H59.3332V59.9999H55.3333V57.3333Z" fill="#3766CC"/>
<path d="M55.3333 62.6666H59.3332V65.3333H55.3333V62.6666Z" fill="#3766CC"/>
<path d="M55.3333 68H59.3332V70.6667H55.3333V68Z" fill="#3766CC"/>
<path d="M11.3337 16.0008H15.3337V74.6674H18.0003V14.6674C18.0003 14.3138 17.8599 13.9747 17.6098 13.7246C17.3598 13.4746 17.0206 13.3341 16.667 13.3341H14.1078L22.0003 3.46845L29.8928 13.3341H27.3337C26.98 13.3341 26.6409 13.4746 26.3908 13.7246C26.1408 13.9747 26.0003 14.3138 26.0003 14.6674V46.6674H28.667V16.0008H32.667C32.9182 16.0008 33.1643 15.9299 33.377 15.7962C33.5897 15.6625 33.7603 15.4714 33.8691 15.2449C33.9779 15.0185 34.0205 14.7659 33.9921 14.5163C33.9636 14.2667 33.8652 14.0302 33.7081 13.8341L23.0415 0.500783C22.9166 0.344637 22.7581 0.218587 22.5779 0.131965C22.3977 0.0453424 22.2003 0.000366211 22.0003 0.000366211C21.8004 0.000366211 21.603 0.0453424 21.4227 0.131965C21.2425 0.218587 21.0841 0.344637 20.9592 0.500783L10.2925 13.8341C10.1355 14.0302 10.0371 14.2667 10.0086 14.5163C9.98012 14.7659 10.0227 15.0185 10.1316 15.2449C10.2404 15.4714 10.4109 15.6625 10.6236 15.7962C10.8363 15.9299 11.0824 16.0008 11.3337 16.0008Z" fill="#3766CC"/>
<path d="M67.3332 16H71.3332V21.3334H73.9998V14.6667C73.9998 14.3131 73.8594 13.9739 73.6093 13.7239C73.3593 13.4738 73.0201 13.3334 72.6665 13.3334H70.1073L77.9998 3.46771L85.8923 13.3334H83.3332C82.9795 13.3334 82.6404 13.4738 82.3904 13.7239C82.1403 13.9739 81.9998 14.3131 81.9998 14.6667V74.6666H84.6665V16H88.6665C88.9177 16.0001 89.1639 15.9292 89.3765 15.7955C89.5892 15.6617 89.7598 15.4706 89.8686 15.2442C89.9774 15.0178 90.02 14.7652 89.9916 14.5156C89.9631 14.266 89.8647 14.0295 89.7077 13.8334L79.041 0.50005C78.9161 0.343905 78.7577 0.217855 78.5774 0.131232C78.3972 0.04461 78.1998 -0.000366211 77.9998 -0.000366211C77.7999 -0.000366211 77.6025 0.04461 77.4222 0.131232C77.242 0.217855 77.0836 0.343905 76.9587 0.50005L66.292 13.8334C66.135 14.0295 66.0366 14.266 66.0081 14.5156C65.9796 14.7652 66.0223 15.0178 66.1311 15.2442C66.2399 15.4706 66.4105 15.6617 66.6231 15.7955C66.8358 15.9292 67.0819 16.0001 67.3332 16Z" fill="#3766CC"/>
<path d="M39.3332 16H43.3332V20H45.9998V14.6667C45.9998 14.3131 45.8594 13.9739 45.6093 13.7239C45.3593 13.4738 45.0201 13.3334 44.6665 13.3334H42.1073L49.9998 3.46771L57.8923 13.3334H55.3332C54.9795 13.3334 54.6404 13.4738 54.3904 13.7239C54.1403 13.9739 53.9998 14.3131 53.9998 14.6667V20H56.6665V16H60.6665C60.9177 16.0001 61.1639 15.9292 61.3765 15.7955C61.5892 15.6617 61.7598 15.4706 61.8686 15.2442C61.9774 15.0178 62.02 14.7652 61.9916 14.5156C61.9631 14.266 61.8647 14.0295 61.7077 13.8334L51.041 0.50005C50.9161 0.343905 50.7577 0.217855 50.5774 0.131232C50.3972 0.04461 50.1998 -0.000366211 49.9998 -0.000366211C49.7999 -0.000366211 49.6025 0.04461 49.4222 0.131232C49.242 0.217855 49.0836 0.343905 48.9587 0.50005L38.292 13.8334C38.135 14.0295 38.0366 14.266 38.0081 14.5156C37.9796 14.7652 38.0223 15.0178 38.1311 15.2442C38.2399 15.4706 38.4105 15.6617 38.6231 15.7955C38.8358 15.9292 39.082 16.0001 39.3332 16Z" fill="#3766CC"/>
</g>
<defs>
<clipPath id="clip0_807_10">
<rect width="80" height="80" fill="white" transform="translate(10)"/>
</clipPath>
</defs>
</svg>
