<svg width="90" height="90" viewBox="0 0 90 90" fill="none" xmlns="http://www.w3.org/2000/svg">
<circle cx="20" cy="20" r="20" fill="white"/>
<path d="M31.2505 60.3002C29.6188 60.3002 28.0238 60.784 26.667 61.6905C25.3103 62.5971 24.2529 63.8856 23.6285 65.393C23.0041 66.9005 22.8407 68.5593 23.159 70.1597C23.4773 71.76 24.2631 73.2301 25.4169 74.3838C26.5707 75.5376 28.0407 76.3234 29.641 76.6417C31.2414 76.96 32.9002 76.7966 34.4077 76.1722C35.9152 75.5478 37.2036 74.4904 38.1102 73.1337C39.0167 71.777 39.5005 70.1819 39.5005 68.5502C39.4981 66.3629 38.6281 64.2659 37.0815 62.7193C35.5348 61.1726 33.4378 60.3026 31.2505 60.3002ZM31.2505 74.0502C30.1627 74.0502 29.0993 73.7276 28.1949 73.1233C27.2904 72.5189 26.5854 71.66 26.1692 70.655C25.7529 69.65 25.644 68.5441 25.8562 67.4772C26.0684 66.4103 26.5922 65.4303 27.3614 64.6611C28.1306 63.8919 29.1106 63.3681 30.1775 63.1559C31.2444 62.9436 32.3503 63.0526 33.3553 63.4688C34.3603 63.8851 35.2193 64.5901 35.8236 65.4945C36.428 66.399 36.7505 67.4624 36.7505 68.5502C36.7489 70.0084 36.1689 71.4064 35.1378 72.4375C34.1067 73.4686 32.7087 74.0486 31.2505 74.0502Z" fill="#3766CC"/>
<path d="M48.5822 79.7449C48.8658 79.7596 49.1469 79.6861 49.387 79.5344C49.6271 79.3828 49.8143 79.1605 49.9228 78.898L51.7706 74.437C51.8793 74.1747 51.9041 73.8852 51.8416 73.6082C51.7792 73.3312 51.6325 73.0804 51.4217 72.8901L48.0444 69.8411V67.2595L51.4217 64.2104C51.6325 64.0202 51.7792 63.7693 51.8416 63.4923C51.9041 63.2154 51.8793 62.9259 51.7706 62.6635L49.9226 58.2034C49.8143 57.9408 49.6272 57.7183 49.3871 57.5667C49.1469 57.415 48.8656 57.3416 48.582 57.3565L44.0378 57.5886L42.2125 55.7627L42.4447 51.2185C42.4592 50.935 42.3856 50.6538 42.2339 50.4138C42.0823 50.1738 41.86 49.9866 41.5977 49.8779L37.1368 48.0302C36.8745 47.9216 36.585 47.8968 36.308 47.9592C36.031 48.0217 35.7802 48.1684 35.5899 48.3791L32.5409 51.7565H29.9593L26.9102 48.3791C26.72 48.1684 26.4691 48.0217 26.1922 47.9592C25.9152 47.8968 25.6257 47.9216 25.3634 48.0302L20.9032 49.8776C20.6409 49.9862 20.4186 50.1734 20.2669 50.4135C20.1153 50.6535 20.0417 50.9346 20.0562 51.2182L20.2877 55.7627L18.4625 57.5877L13.9183 57.3557C13.6347 57.3405 13.3533 57.4138 13.1131 57.5655C12.8729 57.7172 12.6858 57.9398 12.5777 58.2025L10.7297 62.6635C10.621 62.9259 10.5962 63.2154 10.6587 63.4923C10.7212 63.7693 10.8679 64.0202 11.0786 64.2104L14.456 67.2595V69.8411L11.0786 72.8901C10.8679 73.0804 10.7212 73.3312 10.6587 73.6082C10.5962 73.8852 10.621 74.1747 10.7297 74.437L12.5775 78.898C12.6859 79.1606 12.873 79.3831 13.1131 79.5347C13.3533 79.6864 13.6345 79.7598 13.9182 79.7449L18.4624 79.5129L20.2877 81.3378L20.0555 85.882C20.041 86.1656 20.1146 86.4467 20.2663 86.6868C20.4179 86.9268 20.6402 87.114 20.9025 87.2227L25.3634 89.0703C25.6257 89.179 25.9152 89.2038 26.1922 89.1413C26.4691 89.0789 26.72 88.9322 26.9102 88.7214L29.9593 85.3441H32.5409L35.5899 88.7214C35.7802 88.9322 36.031 89.0789 36.308 89.1413C36.585 89.2038 36.8745 89.179 37.1368 89.0703L41.5977 87.2227C41.86 87.114 42.0823 86.9268 42.2339 86.6868C42.3856 86.4467 42.4592 86.1656 42.4447 85.882L42.2125 81.3378L44.038 79.5125L48.5822 79.7449ZM42.5251 77.1362L39.836 79.8253C39.6999 79.9614 39.5939 80.1244 39.5249 80.304C39.4558 80.4835 39.4252 80.6756 39.435 80.8677L39.6488 85.0531L36.9809 86.1581L34.172 83.048C34.043 82.9052 33.8856 82.791 33.7097 82.7129C33.5339 82.6347 33.3436 82.5944 33.1512 82.5944H29.3476C29.1554 82.5946 28.9654 82.635 28.7898 82.7132C28.6142 82.7913 28.457 82.9053 28.3282 83.048L25.5199 86.1589L22.8521 85.0539L23.0659 80.8686C23.0757 80.6765 23.0451 80.4844 22.976 80.3048C22.9069 80.1253 22.801 79.9622 22.6649 79.8262L19.9751 77.1362C19.839 77.0001 19.676 76.8942 19.4965 76.8251C19.3169 76.756 19.1249 76.7254 18.9328 76.7352L14.7475 76.949L13.6425 74.2811L16.7524 71.4722C16.8952 71.3432 17.0093 71.1858 17.0875 71.01C17.1656 70.8342 17.206 70.644 17.206 70.4516V66.648C17.2058 66.4558 17.1654 66.2657 17.0873 66.0901C17.0091 65.9145 16.8951 65.7572 16.7524 65.6284L13.6414 62.82L14.7464 60.1521L18.9318 60.3659C19.1239 60.3757 19.3159 60.3451 19.4954 60.276C19.675 60.2069 19.838 60.101 19.974 59.9649L22.6642 57.2752C22.8003 57.1392 22.9062 56.9761 22.9753 56.7966C23.0444 56.617 23.075 56.425 23.0652 56.2328L22.8514 52.0475L25.5192 50.9425L28.3282 54.0526C28.4571 54.1954 28.6146 54.3096 28.7905 54.3877C28.9663 54.4658 29.1566 54.5062 29.349 54.5062H33.1526C33.3448 54.506 33.5348 54.4655 33.7103 54.3874C33.8859 54.3093 34.0432 54.1952 34.172 54.0526L36.9802 50.9416L39.6481 52.0466L39.4343 56.232C39.4245 56.4241 39.4551 56.6162 39.5242 56.7957C39.5932 56.9753 39.6992 57.1384 39.8353 57.2744L42.5251 59.9641C42.6611 60.1001 42.8242 60.2061 43.0037 60.2751C43.1832 60.3442 43.3753 60.3748 43.5674 60.3651L47.7527 60.1512L48.8577 62.8191L45.7478 65.6284C45.605 65.7573 45.4908 65.9148 45.4127 66.0906C45.3346 66.2664 45.2942 66.4566 45.2942 66.649V70.4526C45.2943 70.6448 45.3348 70.8349 45.4129 71.0105C45.491 71.1861 45.6051 71.3434 45.7478 71.4722L48.8587 74.2806L47.7537 76.9485L43.5684 76.7347C43.3761 76.7248 43.1838 76.7554 43.0041 76.8246C42.8244 76.8938 42.6612 76.9999 42.5251 77.1362Z" fill="#3766CC"/>
<path d="M60.7925 49.7364L43.4384 42.7947L37.4248 15.1313C37.1527 13.907 36.4726 12.8115 35.496 12.0245C34.5195 11.2375 33.3044 10.8057 32.0502 10.8H16.1248C15.7601 10.8 15.4103 10.9449 15.1525 11.2028C14.8946 11.4606 14.7498 11.8104 14.7498 12.1751V54.8002H17.4998V13.5501H32.0502C32.6773 13.5529 33.2848 13.7688 33.7731 14.1623C34.2614 14.5558 34.6014 15.1035 34.7375 15.7157L40.9063 44.0923C40.954 44.3121 41.0549 44.5167 41.2001 44.6884C41.3454 44.8601 41.5304 44.9935 41.7392 45.077L59.7712 52.2898C60.2825 52.4924 60.7209 52.8443 61.0293 53.2998C61.3377 53.7552 61.5017 54.293 61.4999 54.843V82.3003H44.9999V85.0503H62.8749C63.2396 85.0503 63.5893 84.9054 63.8472 84.6476C64.105 84.3897 64.2499 84.04 64.2499 83.6753V54.843C64.2535 53.7429 63.9256 52.6673 63.3088 51.7564C62.6921 50.8455 61.8152 50.1416 60.7925 49.7364Z" fill="#3766CC"/>
<path d="M87.6247 49.3002C87.9893 49.3002 88.3391 49.1553 88.5969 48.8974C88.8548 48.6396 88.9997 48.2898 88.9997 47.9252V39.6751C88.9997 39.3105 88.8548 38.9607 88.5969 38.7029C88.3391 38.445 87.9893 38.3001 87.6247 38.3001H77.9996V32.8001H84.8747C85.2393 32.8001 85.5891 32.6552 85.8469 32.3974C86.1048 32.1395 86.2497 31.7898 86.2497 31.4251V23.1751C86.2497 22.8104 86.1048 22.4607 85.8469 22.2028C85.5891 21.9449 85.2393 21.8001 84.8747 21.8001H77.9996V14.9251C77.9996 14.5604 77.8548 14.2106 77.5969 13.9528C77.339 13.6949 76.9893 13.55 76.6246 13.55H39.4995V16.3001H44.9995V21.8001H42.2495V24.5501H53.2496V30.0501H43.6245V32.8001H60.1246V38.3001H44.9995V41.0501H51.8745V43.8001H54.6246V41.0501H68.3746V46.5502H62.8746V49.3002H77.9996V54.8002H66.9996V57.5502H69.7496V63.0502H66.9996V65.8002H77.9996V71.3002H66.9996V74.0502H69.7496V79.5503H66.9996V82.3003H87.6247C87.9893 82.3003 88.3391 82.1554 88.5969 81.8975C88.8548 81.6397 88.9997 81.2899 88.9997 80.9253V72.6752C88.9997 72.3106 88.8548 71.9608 88.5969 71.703C88.3391 71.4451 87.9893 71.3002 87.6247 71.3002H80.7496V65.8002H87.6247C87.9893 65.8002 88.3391 65.6553 88.5969 65.3975C88.8548 65.1396 88.9997 64.7899 88.9997 64.4252V56.1752C88.9997 55.8105 88.8548 55.4608 88.5969 55.2029C88.3391 54.945 87.9893 54.8002 87.6247 54.8002H80.7496V49.3002H87.6247ZM83.4996 24.5501V30.0501H72.4996V24.5501H83.4996ZM75.2496 21.8001H64.2496V16.3001H75.2496V21.8001ZM47.7495 16.3001H61.4996V21.8001H47.7495V16.3001ZM55.9996 24.5501H69.7496V30.0501H55.9996V24.5501ZM62.8746 32.8001H75.2496V38.3001H62.8746V32.8001ZM86.2497 74.0502V79.5503H72.4996V74.0502H86.2497ZM86.2497 57.5502V63.0502H72.4996V57.5502H86.2497ZM71.1246 46.5502V41.0501H86.2497V46.5502H71.1246Z" fill="#3766CC"/>
</svg>
