<svg width="90" height="90" viewBox="0 0 90 90" fill="none" xmlns="http://www.w3.org/2000/svg">
<circle cx="70" cy="70" r="20" fill="white"/>
<g clip-path="url(#clip0_807_12)">
<path d="M73.3333 62.6666H69.3333V62.4088C69.3301 61.0567 68.8147 59.756 67.891 58.7686C66.9673 57.7812 65.7038 57.1805 64.3549 57.0873L53.1365 56.3395C51.3613 56.221 49.5813 56.4835 47.9159 57.1092C46.2504 57.735 44.738 58.7097 43.4801 59.9678C42.0062 61.4373 40.8252 63.1737 40.0001 65.0845C39.1749 63.1737 37.994 61.4373 36.5201 59.9678C35.2622 58.7096 33.7498 57.7349 32.0843 57.1092C30.4188 56.4834 28.6388 56.221 26.8636 56.3396L15.6454 57.0875C14.2965 57.1806 13.033 57.7813 12.1092 58.7687C11.1855 59.756 10.6701 61.0567 10.6668 62.4088V62.6666H6.66678C4.89928 62.6686 3.20474 63.3716 1.95493 64.6214C0.705122 65.8712 0.00210716 67.5658 0.00012207 69.3333C0.000117918 69.6638 0.122891 69.9826 0.344623 70.2277C0.566354 70.4729 0.871237 70.6269 1.20012 70.6599L26.6667 73.2066V79.9999H29.3334V71.9999C29.3334 71.6694 29.2106 71.3506 28.9889 71.1055C28.7672 70.8604 28.4623 70.7063 28.1334 70.6733L2.84712 68.1446C3.10163 67.3305 3.60933 66.6188 4.29633 66.1131C4.98332 65.6075 5.81376 65.3343 6.66678 65.3333H22.6668V62.6666H13.3334V62.4088C13.3351 61.7327 13.5928 61.0824 14.0547 60.5887C14.5165 60.0951 15.1483 59.7947 15.8228 59.7481L27.0411 59C28.437 58.9066 29.8368 59.1129 31.1465 59.605C32.4562 60.0971 33.6455 60.8636 34.6346 61.8531C35.917 63.1285 36.9337 64.6456 37.6258 66.3166C38.3179 67.9876 38.6717 69.7793 38.6667 71.5879V79.9999H41.3334V71.5879C41.3285 69.7793 41.6823 67.9877 42.3744 66.3167C43.0665 64.6458 44.0832 63.1287 45.3656 61.8533C46.3546 60.8637 47.5439 60.0972 48.8536 59.6051C50.1633 59.1129 51.5631 58.9066 52.959 59L64.1775 59.7478C64.852 59.7944 65.4838 60.0948 65.9456 60.5886C66.4075 61.0823 66.6651 61.7327 66.6667 62.4088V62.6666H57.3334V65.3333H73.3333C74.1864 65.3343 75.0168 65.6075 75.7038 66.1131C76.3908 66.6188 76.8985 67.3305 77.153 68.1446L51.8667 70.6733C51.5378 70.7063 51.2329 70.8604 51.0112 71.1055C50.7895 71.3506 50.6667 71.6694 50.6667 71.9999V79.9999H53.3334V73.2066L78.8 70.6599C79.1289 70.6269 79.4338 70.4729 79.6555 70.2277C79.8772 69.9826 80 69.6638 80 69.3333C79.998 67.5658 79.295 65.8712 78.0452 64.6214C76.7954 63.3716 75.1008 62.6686 73.3333 62.6666Z" fill="#3766CC"/>
<path d="M29.3334 7.75988L53.3334 2.95989V14.6667H56V1.33339C56 1.13612 55.9563 0.941298 55.8719 0.762982C55.7875 0.584667 55.6646 0.427299 55.512 0.302226C55.3595 0.177152 55.1811 0.0874907 54.9897 0.0397059C54.7983 -0.00807884 54.5986 -0.0127958 54.4052 0.0258948L27.7386 5.35922C27.4363 5.41967 27.1644 5.58299 26.9689 5.82137C26.7735 6.05975 26.6667 6.35848 26.6667 6.66672V17.3334H29.3334V7.75988Z" fill="#3766CC"/>
<path d="M37.3334 25.3334H40V28H37.3334V25.3334Z" fill="#3766CC"/>
<path d="M40 17.3334H42.6667V20H40V17.3334Z" fill="#3766CC"/>
<path d="M33.3334 10.6667H36V13.3334H33.3334V10.6667Z" fill="#3766CC"/>
<path d="M46.6666 10.6667H49.3333V13.3334H46.6666V10.6667Z" fill="#3766CC"/>
<path d="M40 36H42.6667V38.6667H40V36Z" fill="#3766CC"/>
<path d="M37.3334 46.6666H40V49.3333H37.3334V46.6666Z" fill="#3766CC"/>
<path d="M52 34.6666H54.6667V37.3333H52V34.6666Z" fill="#3766CC"/>
<path d="M54.6666 42.6666H57.3333V45.3333H54.6666V42.6666Z" fill="#3766CC"/>
<path d="M13.3334 50.6666H24.0001V47.9999H13.3334V45.3333H26.6667V42.6666H13.3334V40H24.0001V37.3333H13.3334V34.6666H21.3334V32H13.3334V29.3333H25.3334V26.6666H13.3334V20.2733L27.0606 22.8471C28.4485 23.108 29.7017 23.8454 30.6036 24.9321C31.5055 26.0188 31.9994 27.3864 32 28.7986V54.6666H34.6667V28.7986C34.6658 26.7645 33.9543 24.7946 32.6553 23.2293C31.3562 21.6641 29.5512 20.6018 27.5521 20.226L22.6667 19.31V14.6667H20.0001V18.81L17.3334 18.31V12H14.6667V17.81L12.2457 17.3562C12.0532 17.3201 11.855 17.3268 11.6654 17.376C11.4758 17.4252 11.2993 17.5155 11.1485 17.6407C10.9978 17.7658 10.8765 17.9226 10.7932 18.0999C10.7099 18.2772 10.6667 18.4707 10.6667 18.6667V54.6666H13.3334V50.6666Z" fill="#3766CC"/>
<path d="M52 18.6667V22.6667H49.3334C48.9797 22.6667 48.6406 22.8072 48.3906 23.0572C48.1405 23.3073 48 23.6464 48 24V28H46.6667C46.3131 28 45.9739 28.1405 45.7239 28.3905C45.4738 28.6406 45.3334 28.9797 45.3334 29.3334V54.6666H48V30.6667H66.6667V38.6667H61.3333V41.3333H66.6667V44H61.3333V46.6667H66.6667V49.3333H56V52H66.6667V54.6666H69.3333V29.3334C69.3333 28.9797 69.1929 28.6406 68.9428 28.3905C68.6928 28.1405 68.3536 28 68 28H66.6667V24C66.6667 23.6464 66.5262 23.3073 66.2762 23.0572C66.0261 22.8072 65.687 22.6667 65.3333 22.6667H62.6667V18.6667C62.6667 18.3131 62.5262 17.9739 62.2762 17.7239C62.0261 17.4738 61.687 17.3334 61.3333 17.3334H53.3334C52.9797 17.3334 52.6406 17.4738 52.3906 17.7239C52.1405 17.9739 52 18.3131 52 18.6667ZM64 28H50.6667V25.3334H64V28ZM60 20V22.6667H54.6667V20H60Z" fill="#3766CC"/>
</g>
<defs>
<clipPath id="clip0_807_12">
<rect width="80" height="80" fill="white"/>
</clipPath>
</defs>
</svg>
