<svg width="90" height="90" viewBox="0 0 90 90" fill="none" xmlns="http://www.w3.org/2000/svg">
<circle cx="70" cy="20" r="20" fill="white"/>
<g clip-path="url(#clip0_807_13)">
<path d="M78.5563 23.2722C77.7589 23.2722 77.1125 23.9186 77.1125 24.7159V87.1123H65.5681V83.8612H72.4777C73.275 83.8612 73.9214 83.2148 73.9214 82.4175V56.8894C73.9214 56.092 73.275 55.4456 72.4777 55.4456H66.3083V52.2547H72.4777C73.275 52.2547 73.9214 51.6083 73.9214 50.8109V17.4622C73.9214 16.6648 73.275 16.0184 72.4777 16.0184H43.0392C42.2419 16.0184 41.5955 16.6648 41.5955 17.4622V38.3759H38.4044V17.4622C38.4044 16.6648 37.758 16.0184 36.9606 16.0184H7.52236C6.72502 16.0184 6.07861 16.6648 6.07861 17.4622V44.6253V50.8108C6.07861 51.6081 6.72502 52.2545 7.52236 52.2545H12.743C13.5403 52.2545 14.1867 51.6081 14.1867 50.8108C14.1867 50.0134 13.5403 49.367 12.743 49.367H8.96611V46.0691H15.0927C20.2003 46.0691 24.3556 41.9137 24.3556 36.8062V18.9059H35.5169V39.8197C35.5169 40.617 36.1633 41.2634 36.9606 41.2634H43.0392C43.8366 41.2634 44.483 40.617 44.483 39.8197V18.9059H71.0338V22.6203H67.2211C66.4238 22.6203 65.7774 23.2667 65.7774 24.0641V43.8917C65.7774 44.6891 66.4238 45.3355 67.2211 45.3355H71.0338V49.367H64.8644C64.0671 49.367 63.4206 50.0134 63.4206 50.8108V56.8892C63.4206 57.6866 64.0671 58.333 64.8644 58.333H71.0338V80.9736H64.1241C63.3267 80.9736 62.6803 81.62 62.6803 82.4173V88.5561C62.6803 89.3534 63.3267 89.9998 64.1241 89.9998H78.5558C79.3531 89.9998 79.9995 89.3534 79.9995 88.5561V24.7159C80 23.9186 79.3536 23.2722 78.5563 23.2722ZM21.4683 36.8062H21.4681C21.4681 40.3216 18.6081 43.1816 15.0927 43.1816H8.96611V18.9059H10.0196V19.8392C10.0196 20.6366 10.666 21.283 11.4633 21.283C12.2606 21.283 12.9071 20.6366 12.9071 19.8392V18.9059H13.7733V22.7267C13.7733 23.5241 14.4197 24.1705 15.2171 24.1705C16.0144 24.1705 16.6608 23.5241 16.6608 22.7267V18.9059H17.5271V19.8392C17.5271 20.6366 18.1735 21.283 18.9708 21.283C19.7681 21.283 20.4146 20.6366 20.4146 19.8392V18.9059H21.4681V36.8062H21.4683ZM71.0339 42.4481H68.665V25.5078H71.0339V42.4481Z" fill="#3766CC"/>
<path d="M13.7002 18H16.7002V25H13.7002V18Z" fill="#3766CC"/>
<path d="M10 18H13V22H10V18Z" fill="#3766CC"/>
<path d="M17.4 18H20.4V22H17.4V18Z" fill="#3766CC"/>
<path d="M78.5563 10.001H1.44375C0.646406 10.001 0 10.6474 0 11.4447V88.5571C0 89.3544 0.646406 90.0008 1.44375 90.0008H52.4952C53.2925 90.0008 53.9389 89.3544 53.9389 88.5571V82.4183C53.9389 81.621 53.2925 80.9746 52.4952 80.9746H44.483V66.9188C44.483 66.1214 43.8366 65.475 43.0392 65.475H36.9606C36.1633 65.475 35.5169 66.1214 35.5169 66.9188V80.9746H8.96609V77.6665H13.3563C14.713 77.6665 15.9119 76.9827 16.6302 75.9425C17.8858 76.5932 19.3286 76.9416 20.8442 76.9416C25.3477 76.9416 29.0116 73.7936 29.0116 69.9243C29.0116 68.7754 28.6828 67.636 28.0609 66.6293C27.642 65.9511 26.7522 65.7405 26.0739 66.1597C25.3955 66.5788 25.1853 67.4683 25.6044 68.1468C25.9492 68.705 26.1239 69.303 26.1239 69.9243C26.1239 72.2013 23.7553 74.0539 20.8442 74.0539C19.5452 74.0539 18.2987 73.6736 17.3337 72.9979V66.8505C18.2987 66.1749 19.5452 65.7944 20.8442 65.7944C21.6848 65.7944 22.4886 65.9461 23.2331 66.245C23.9727 66.5422 24.8137 66.183 25.1108 65.443C25.4078 64.703 25.0487 63.8624 24.3088 63.5654C23.2205 63.1283 22.055 62.9068 20.8439 62.9068C19.3281 62.9068 17.885 63.2552 16.6289 63.9063C15.9106 62.8669 14.7122 62.1836 13.3558 62.1836H8.96609V58.3336H48.8142C49.6116 58.3336 50.258 57.6872 50.258 56.8899V50.8114C50.258 50.0141 49.6116 49.3677 48.8142 49.3677H17.363C16.5656 49.3677 15.9192 50.0141 15.9192 50.8114C15.9192 51.6088 16.5656 52.2552 17.363 52.2552H47.3706V55.4461H7.52234C6.725 55.4461 6.07859 56.0925 6.07859 56.8899V82.4182C6.07859 83.2155 6.725 83.8619 7.52234 83.8619H36.9608C37.7581 83.8619 38.4045 83.2155 38.4045 82.4182V68.3624H41.5956V82.4182C41.5956 83.2155 42.242 83.8619 43.0394 83.8619H51.0516V87.113H2.8875V12.8885H77.1125V19.5835C77.1125 20.3808 77.7589 21.0272 78.5563 21.0272C79.3536 21.0272 80 20.3808 80 19.5835V11.4447C80 10.6474 79.3536 10.001 78.5563 10.001ZM8.96609 65.0718H13.3563V65.0716C13.9575 65.0716 14.4464 65.5605 14.4464 66.1618V73.6889C14.4464 74.2899 13.9575 74.7791 13.3563 74.7791H8.96609V65.0718Z" fill="#3766CC"/>
<path d="M60.3499 22.6204H49.6913C48.894 22.6204 48.2476 23.2668 48.2476 24.0641V43.8918C48.2476 44.6891 48.894 45.3355 49.6913 45.3355H60.3499C61.1472 45.3355 61.7937 44.6891 61.7937 43.8918V39.1755V28.7804V24.0641C61.7937 23.2668 61.1472 22.6204 60.3499 22.6204ZM58.9062 37.7318H56.1522V30.2241H58.9062V37.7318ZM58.9062 27.3366H54.7085C53.9112 27.3366 53.2647 27.983 53.2647 28.7804V39.1755C53.2647 39.9729 53.9112 40.6193 54.7085 40.6193H58.9062V42.448H51.1351V25.5079H58.9062V27.3366Z" fill="#3766CC"/>
<path d="M18.9999 68.48H21.6665V71.1466H18.9999V68.48Z" fill="#3766CC"/>
<path d="M13.9998 36H16.6664V38.6667H13.9998V36Z" fill="#3766CC"/>
</g>
<defs>
<clipPath id="clip0_807_13">
<rect width="80" height="80" fill="white" transform="translate(0 10)"/>
</clipPath>
</defs>
</svg>
