<svg width="90" height="90" viewBox="0 0 90 90" fill="none" xmlns="http://www.w3.org/2000/svg">
<circle cx="70" cy="20" r="20" fill="white"/>
<path d="M78.828 28.75C78.181 28.75 77.6561 29.2749 77.6561 29.9219V79.9999H75.3124V21.7969C75.3124 21.1499 74.7875 20.625 74.1405 20.625H5.85936C5.21239 20.625 4.68749 21.1499 4.68749 21.7969V79.9999H2.34375V74.9218C2.34375 74.2748 1.81884 73.7499 1.17187 73.7499C0.524901 73.7499 0 74.2748 0 74.9218V81.1718C0 81.8193 0.524901 82.3436 1.17187 82.3436H4.68749V82.7343C4.68749 83.3818 5.21239 83.9061 5.85936 83.9061H17.7795C18.117 83.9061 18.4387 83.7609 18.6609 83.507C18.8836 83.2531 18.9856 82.9155 18.9416 82.5805L18.9105 82.3436H54.9999C55.6469 82.3436 56.1718 81.8187 56.1718 81.1718C56.1718 80.5242 55.6469 79.9999 54.9999 79.9999H18.6004L18.291 77.6561H61.7089L61.3994 79.9999H59.9999C59.3529 79.9999 58.828 80.5242 58.828 81.1718C58.828 81.8187 59.3529 82.3436 59.9999 82.3436H61.09L61.0582 82.5805C61.0143 82.9155 61.1168 83.2531 61.339 83.507C61.5618 83.7609 61.8828 83.9061 62.2203 83.9061H74.1405C74.7881 83.9061 75.3124 83.3818 75.3124 82.7343V82.3436H78.828C79.4756 82.3436 79.9998 81.8193 79.9998 81.1718V29.9219C79.9998 29.2749 79.4749 28.75 78.828 28.75ZM65.5468 54.5062C64.9004 54.5062 64.3749 53.9807 64.3749 53.3343C64.3749 52.6879 64.9004 52.1624 65.5468 52.1624H72.9686V54.5062H65.5468ZM62.2844 22.9687L67.4224 43.8818C67.5536 44.4165 68.0327 44.7741 68.5594 44.7741C68.6516 44.7741 68.7462 44.7631 68.8396 44.7399C69.4683 44.5855 69.8528 43.9508 69.6984 43.3227L64.6978 22.9687H68.0657L69.0666 34.5544C69.1197 35.1648 69.6312 35.625 70.233 35.625C70.2666 35.625 70.3008 35.6238 70.3349 35.6207C70.9801 35.5652 71.4574 34.9975 71.4018 34.3524L70.418 22.9687H72.9686V49.8187H66.6063L60.0103 22.9687H62.2844ZM9.58189 22.9687L8.59801 34.3524C8.54246 34.9969 9.01976 35.5652 9.6649 35.6207C9.69908 35.6238 9.73326 35.625 9.76683 35.625C10.3686 35.625 10.8801 35.1642 10.9332 34.5538L11.9342 22.9687H15.3021L10.3015 43.3227C10.1471 43.9508 10.5316 44.5855 11.1603 44.7399C11.2543 44.7631 11.3482 44.7741 11.4404 44.7741C11.9671 44.7741 12.4463 44.4165 12.5775 43.8818L17.7154 22.9687H19.9896L13.3935 49.8187H7.03124V22.9687H9.58189ZM14.4531 54.5062H7.03124V52.1624H14.4531C15.0995 52.1624 15.625 52.6879 15.625 53.3343C15.625 53.9807 15.0995 54.5062 14.4531 54.5062ZM7.03124 81.5624V56.8499H13.1787L16.4428 81.5624H7.03124ZM15.5212 56.6833C16.9391 56.2304 17.9687 54.9005 17.9687 53.3343C17.9687 51.8524 17.0465 50.5822 15.7464 50.0659L22.4035 22.9687H38.8281V75.3124H17.9815L15.5212 56.6833ZM41.1718 75.3124V22.9687H57.5963L64.2534 50.0659C62.9534 50.5822 62.0311 51.8524 62.0311 53.3343C62.0311 54.9005 63.0608 56.2304 64.4786 56.6833L62.0183 75.3124H41.1718ZM72.9686 81.5624H63.557L66.8212 56.8499H72.9686V81.5624Z" fill="#3766CC"/>
<path d="M78.828 15.9375H1.17187C0.524901 15.9375 0 16.4624 0 17.1094V69.9218C0 70.5693 0.524901 71.0936 1.17187 71.0936C1.81884 71.0936 2.34375 70.5693 2.34375 69.9218V18.2812H77.6561V24.9219C77.6561 25.5694 78.181 26.0937 78.828 26.0937C79.4749 26.0937 79.9998 25.5694 79.9998 24.9219V17.1094C79.9998 16.4624 79.4749 15.9375 78.828 15.9375Z" fill="#3766CC"/>
</svg>
