<svg width="400" height="100" viewBox="0 0 400 100" fill="none" xmlns="http://www.w3.org/2000/svg">
<path d="M0 20.6818V14.1667H0.5V11.3956L3.46219 11.3149L3.44856 10.815L10.3451 10.627L10.3587 11.1268L17.2553 10.9387L17.2416 10.4389L24.1382 10.2508L24.1518 10.7506L31.0484 10.5625L31.0347 10.0627L37.9313 9.8746L37.9449 10.3744L44.8414 10.1863L44.8278 9.68651L51.7244 9.49843L51.738 9.99824L58.6345 9.81015L58.6209 9.31034L65.5174 9.12225L65.5311 9.62207L72.4276 9.43398L72.414 8.93416L79.3105 8.74608L79.3242 9.24589L86.2207 9.0578L86.2071 8.55799L93.1036 8.3699L93.1173 8.86972L100.014 8.68163L100 8.18181L106.897 7.99373L106.91 8.49354L113.807 8.30545L113.793 7.80564L120.69 7.61755L120.703 8.11736L127.6 7.92928L127.586 7.42946L134.483 7.24138L134.497 7.74119L141.393 7.5531L141.379 7.05329L148.276 6.8652L148.29 7.36501L155.186 7.17693L155.173 6.67711L162.069 6.48903L162.083 6.98884L168.979 6.80075L168.966 6.30094L175.862 6.11285L175.876 6.61266L182.772 6.42458L182.759 5.92476L189.655 5.73667L189.669 6.23649L196.565 6.0484L196.552 5.54859L203.448 5.3605L203.462 5.86031L210.359 5.67223L210.345 5.17241L217.241 4.98432L217.255 5.48414L224.152 5.29605L224.138 4.79624L231.035 4.60815L231.048 5.10796L237.945 4.91988L237.931 4.42006L244.828 4.23197L244.841 4.73179L251.738 4.5437L251.724 4.04389L258.621 3.8558L258.634 4.35561L265.531 4.16753L265.517 3.66771L272.414 3.47962L272.427 3.97944L279.324 3.79135L279.31 3.29154L286.207 3.10345L286.221 3.60326L293.117 3.41517L293.103 2.91536L300 2.72727L300.014 3.22709L306.91 3.039L306.897 2.53919L313.793 2.3511L313.807 2.85091L320.703 2.66282L320.69 2.16301L327.586 1.97492L327.6 2.47474L334.496 2.28665L334.483 1.78683L341.379 1.59875L341.393 2.09856L348.289 1.91047L348.276 1.41066L355.172 1.22257L355.186 1.72238L362.083 1.5343L362.069 1.03448L368.966 0.846395L368.979 1.34621L375.876 1.15812L375.862 0.658307L382.759 0.470219L382.772 0.970034L389.669 0.781946L389.655 0.282132L396.552 0.0940438L396.565 0.593858L399.5 0.513823V3.57142H400V10.7143H399.5V17.8571H400V25H399.5V32.1429H400V39.2857H399.5V46.4286H400V53.5714H399.5V60.7143H400V67.8571H399.5V75H400V82.1429H399.5V89.2857H400V96.4286H399.5V99.4862L396.565 99.4061L396.551 99.9059L389.655 99.7179L389.669 99.218L382.772 99.03L382.758 99.5298L375.862 99.3417L375.875 98.8419L368.979 98.6538L368.965 99.1536L362.069 98.9655L362.082 98.4657L355.186 98.2776L355.172 98.7774L348.276 98.5893L348.289 98.0895L341.393 97.9014L341.379 98.4012L334.483 98.2132L334.496 97.7133L327.6 97.5253L327.586 98.0251L320.689 97.837L320.703 97.3372L313.807 97.1491L313.793 97.6489L306.896 97.4608L306.91 96.961L300.013 96.7729L300 97.2727L293.103 97.0846L293.117 96.5848L286.22 96.3967L286.207 96.8965L279.31 96.7085L279.324 96.2086L272.427 96.0206L272.414 96.5204L265.517 96.3323L265.531 95.8325L258.634 95.6444L258.621 96.1442L251.724 95.9561L251.738 95.4563L244.841 95.2682L244.827 95.768L237.931 95.5799L237.945 95.0801L231.048 94.892L231.034 95.3918L224.138 95.2038L224.151 94.7039L217.255 94.5159L217.241 95.0157L210.345 94.8276L210.358 94.3278L203.462 94.1397L203.448 94.6395L196.552 94.4514L196.565 93.9516L189.669 93.7635L189.655 94.2633L182.759 94.0752L182.772 93.5754L175.876 93.3873L175.862 93.8871L168.965 93.6991L168.979 93.1992L162.083 93.0112L162.069 93.511L155.172 93.3229L155.186 92.8231L148.289 92.635L148.276 93.1348L141.379 92.9467L141.393 92.4469L134.496 92.2588L134.483 92.7586L127.586 92.5705L127.6 92.0707L120.703 91.8826L120.69 92.3824L113.793 92.1944L113.807 91.6945L106.91 91.5065L106.897 92.0063L100 91.8182L100.014 91.3184L93.1171 91.1303L93.1035 91.6301L86.2069 91.442L86.2205 90.9422L79.324 90.7541L79.3103 91.2539L72.4138 91.0658L72.4274 90.566L65.5309 90.3779L65.5172 90.8777L58.6207 90.6897L58.6343 90.1898L51.7378 90.0018L51.7241 90.5016L44.8276 90.3135L44.8412 89.8137L37.9447 89.6256L37.931 90.1254L31.0345 89.9373L31.0481 89.4375L24.1516 89.2494L24.1379 89.7492L17.2414 89.5611L17.255 89.0613L10.3585 88.8732L10.3448 89.373L3.44828 89.185L3.46191 88.6851L0.5 88.6044V85.8333H0V79.3182H0.5V72.803H0V66.2879H0.5V59.7727H0V53.2576H0.5V46.7424H0V40.2273H0.5V33.7121H0V27.197H0.5V20.6818H0Z" stroke="#3766CC" stroke-dasharray="7 7"/>
</svg>
