<svg width="110" height="110" viewBox="0 0 110 110" fill="none" xmlns="http://www.w3.org/2000/svg">
<circle cx="90" cy="90" r="20" fill="#F5F5F5"/>
<path d="M98.1568 43.2392L88.657 18.3256C88.3795 17.5952 87.9589 16.9276 87.4198 16.362C86.8808 15.7964 86.2342 15.3441 85.518 15.0318C84.7915 14.7085 84.0078 14.5336 83.2129 14.5174C82.418 14.5011 81.6278 14.6438 80.8887 14.937C80.152 15.2225 79.4805 15.6537 78.9144 16.2049C78.3484 16.7561 77.8994 17.4159 77.5945 18.1448C77.2912 18.8605 77.1355 19.6301 77.1369 20.4074C77.1382 21.1847 77.2964 21.9537 77.6021 22.6684L82.0294 33.0951C81.2434 33.0143 80.4492 33.0993 79.6981 33.3446C78.9471 33.5899 78.2558 33.9901 77.6691 34.5193C77.0824 35.0485 76.6133 35.695 76.2921 36.4169C75.9708 37.1387 75.8047 37.92 75.8043 38.7101V51.2203C75.8027 52.4855 75.5081 53.7332 74.9437 54.8655C72.3344 60.0997 70.973 65.8671 70.966 71.7157V75.8036C70.5383 75.8036 70.1281 75.9735 69.8256 76.276C69.5232 76.5784 69.3533 76.9886 69.3533 77.4164V98.3822H72.5788V79.0291H91.9319V98.3822H95.1574V77.4164C95.1574 76.9886 94.9875 76.5784 94.6851 76.276C94.3826 75.9735 93.9724 75.8036 93.5447 75.8036H92.9298L97.9294 63.7627C100.609 57.1988 100.691 49.8609 98.1568 43.2392V43.2392ZM94.9466 62.5366L89.437 75.8036H74.1916V71.7157C74.1979 66.3679 75.4428 61.0942 77.8287 56.3082C78.6165 54.7277 79.0276 52.9862 79.0298 51.2203V38.7101C79.0307 38.0777 79.2793 37.4709 79.7223 37.0196C80.1654 36.5683 80.7676 36.3086 81.3999 36.2962C82.0321 36.2837 82.6441 36.5194 83.1046 36.9529C83.5651 37.3863 83.8375 37.9829 83.8633 38.6148C83.8651 38.6797 83.8681 58.0632 83.8681 58.0632H87.0936V38.7101C87.0936 38.5976 87.0894 38.4862 87.0829 38.3753C87.0329 37.176 86.7665 35.9957 86.2967 34.8911L80.5714 21.409C80.4352 21.0905 80.3647 20.7478 80.3641 20.4014C80.3636 20.055 80.4331 19.712 80.5684 19.3931C80.7077 19.0619 80.9125 18.7623 81.1705 18.5122C81.4284 18.2621 81.7342 18.0666 82.0695 17.9376C82.412 17.8016 82.7782 17.7355 83.1466 17.743C83.515 17.7506 83.8782 17.8317 84.2149 17.9815C84.5403 18.1226 84.8343 18.3272 85.0796 18.5833C85.3249 18.8395 85.5165 19.1421 85.6434 19.4733L95.1431 44.387C97.3847 50.2424 97.3145 56.7312 94.9466 62.5366V62.5366Z" fill="#3766CC"/>
<path d="M29.0342 75.8036V71.7157C29.0273 65.8671 27.6658 60.0997 25.0566 54.8655C24.4921 53.7332 24.1976 52.4855 24.196 51.2203V38.7101C24.1956 37.92 24.0294 37.1387 23.7082 36.4169C23.387 35.695 22.9179 35.0485 22.3312 34.5193C21.7445 33.9901 21.0532 33.5899 20.3022 33.3446C19.5511 33.0993 18.7569 33.0143 17.9709 33.0951L22.3988 22.667C22.7042 21.9525 22.8623 21.1837 22.8635 20.4066C22.8647 19.6296 22.709 18.8603 22.4058 18.1448C22.1009 17.4159 21.6519 16.7561 21.0859 16.2049C20.5198 15.6537 19.8483 15.2225 19.1115 14.937C18.3725 14.6438 17.5823 14.5011 16.7874 14.5174C15.9924 14.5336 15.2087 14.7085 14.4823 15.0318C13.7661 15.3441 13.1195 15.7963 12.5805 16.3619C12.0414 16.9275 11.6208 17.5951 11.3433 18.3254L1.84352 43.2392C-0.691373 49.8648 -0.608697 57.207 2.07475 63.7738L7.07048 75.8036H6.45561C6.02788 75.8036 5.61767 75.9735 5.31522 76.276C5.01277 76.5784 4.84285 76.9886 4.84285 77.4164V98.3822H8.06837V79.0291H27.4215V98.3822H30.647V77.4164C30.647 76.9886 30.4771 76.5784 30.1746 76.276C29.8722 75.9735 29.462 75.8036 29.0342 75.8036ZM5.05796 62.5477C2.68676 56.7399 2.61469 50.2474 4.85636 44.3884L14.3569 19.4745C14.4838 19.1433 14.6754 18.8407 14.9207 18.5846C15.166 18.3284 15.46 18.1238 15.7854 17.9827C16.1221 17.8329 16.4853 17.7519 16.8537 17.7443C17.2221 17.7368 17.5883 17.8029 17.9308 17.9388C18.2661 18.0679 18.5719 18.2633 18.8298 18.5134C19.0878 18.7635 19.2925 19.0631 19.4319 19.3943C19.567 19.7128 19.6364 20.0553 19.636 20.4013C19.6355 20.7473 19.5652 21.0897 19.4293 21.4078L13.704 34.8913C13.2342 35.9959 12.9678 37.1762 12.9177 38.3755C12.9109 38.4861 12.9067 58.0632 12.9067 58.0632H16.1322C16.1322 58.0632 16.1352 38.6797 16.137 38.6148C16.1628 37.9829 16.4352 37.3863 16.8957 36.9529C17.3562 36.5194 17.9681 36.2837 18.6004 36.2962C19.2327 36.3086 19.8349 36.5683 20.2779 37.0196C20.721 37.4709 20.9696 38.0777 20.9705 38.7101V51.2203C20.9727 52.9862 21.3838 54.7277 22.1716 56.3082C24.5575 61.0942 25.8024 66.3679 25.8087 71.7157V75.8036H10.5633L5.05796 62.5477Z" fill="#3766CC"/>
<path d="M37.0981 30.647H40.3237V33.8725H37.0981V30.647Z" fill="#3766CC"/>
<path d="M43.5491 30.647H46.7746V33.8725H43.5491V30.647Z" fill="#3766CC"/>
<path d="M37.0981 37.0981H40.3237V40.3237H37.0981V37.0981Z" fill="#3766CC"/>
<path d="M58.064 50H61.2895V53.2255H58.064V50Z" fill="#3766CC"/>
<path d="M51.613 50H54.8386V53.2255H51.613V50Z" fill="#3766CC"/>
<path d="M37.0981 43.5488H40.3237V46.7743H37.0981V43.5488Z" fill="#3766CC"/>
<path d="M37.0981 50H40.3237V53.2255H37.0981V50Z" fill="#3766CC"/>
<path d="M32.2599 59.6764H66.1279C66.5556 59.6764 66.9659 59.5065 67.2683 59.2041C67.5708 58.9016 67.7407 58.4914 67.7407 58.0637V46.7743C68.1684 46.7743 68.5786 46.6044 68.8811 46.302C69.1835 45.9995 69.3534 45.5893 69.3534 45.1616V35.485C69.3534 35.2539 69.3038 35.0256 69.2079 34.8153C69.1119 34.6051 68.9719 34.418 68.7973 34.2665C68.6228 34.1151 68.4177 34.003 68.196 33.9378C67.9743 33.8725 67.7412 33.8557 67.5125 33.8884L44.9338 37.1139C44.5495 37.1688 44.1979 37.3606 43.9436 37.6538C43.6892 37.9471 43.5492 38.3223 43.5493 38.7105V45.1616C43.5493 45.5893 43.7192 45.9995 44.0216 46.302C44.3241 46.6044 44.7343 46.7743 45.162 46.7743V56.4509H33.8727V27.4212H50.0003V32.2595H53.2258V27.4212C53.6536 27.4212 54.0638 27.2513 54.3662 26.9489C54.6687 26.6464 54.8386 26.2362 54.8386 25.8085V16.1319C54.8386 15.9008 54.789 15.6724 54.693 15.4622C54.5971 15.252 54.4571 15.0648 54.2825 14.9134C54.1079 14.762 53.9029 14.6499 53.6812 14.5847C53.4595 14.5194 53.2264 14.5026 52.9976 14.5353L30.419 17.7608C30.0347 17.8157 29.6831 18.0074 29.4287 18.3007C29.1744 18.594 29.0344 18.9692 29.0344 19.3574V25.8085C29.0344 26.2362 29.2043 26.6464 29.5068 26.9489C29.8092 27.2513 30.2195 27.4212 30.6472 27.4212V58.0637C30.6472 58.4914 30.8171 58.9016 31.1195 59.2041C31.422 59.5065 31.8322 59.6764 32.2599 59.6764ZM46.7748 40.1092L66.1279 37.3445V43.5488H46.7748V40.1092ZM48.3875 46.7743H64.5152V56.4509H48.3875V46.7743ZM32.2599 20.7561L51.6131 17.9914V24.1957H32.2599V20.7561Z" fill="#3766CC"/>
<path d="M50.0001 75.8043C43.8539 75.8064 37.8125 74.212 32.4678 71.1772L30.8716 73.9794C36.7035 77.2891 43.2945 79.029 50.0001 79.029C56.7058 79.029 63.2967 77.2891 69.1287 73.9794L67.5324 71.1772C62.1877 74.212 56.1463 75.8064 50.0001 75.8043V75.8043Z" fill="#3766CC"/>
<path d="M50.0002 4.84251C54.758 4.8263 59.4698 5.77485 63.8507 7.63085C68.2317 9.48685 72.1908 12.2118 75.489 15.6409L77.8058 13.3972C74.197 9.67052 69.8758 6.70732 65.0992 4.68366C60.3225 2.66 55.1878 1.61719 50.0002 1.61719C44.8125 1.61719 39.6778 2.66 34.9012 4.68366C30.1245 6.70732 25.8034 9.67052 22.1946 13.3972L24.5113 15.6409C27.8095 12.2118 31.7687 9.48685 36.1496 7.63085C40.5306 5.77485 45.2423 4.8263 50.0002 4.84251V4.84251Z" fill="#3766CC"/>
<path d="M36.4184 69.5872L37.7779 66.6621C36.7275 66.1734 35.7073 65.6225 34.7226 65.0122L33.0227 67.7539C34.117 68.4322 35.2509 69.0444 36.4184 69.5872V69.5872Z" fill="#3766CC"/>
<path d="M50.0001 69.3528C46.8313 69.3564 43.6833 68.8404 40.6816 67.8253L39.647 70.8802C44.4781 72.5113 49.6266 72.9761 54.6718 72.2366C59.7169 71.497 64.5155 69.5742 68.6752 66.6252L66.8057 63.9966C61.9008 67.4936 56.0239 69.3667 50.0001 69.3528V69.3528Z" fill="#3766CC"/>
<path d="M44.9089 8.46747L45.4145 11.6527C46.9313 11.4132 48.4645 11.2931 50 11.2934C57.3809 11.2823 64.4868 14.0938 69.8622 19.1518L72.0696 16.8C66.0969 11.1796 58.2013 8.05565 50 8.06791C48.2952 8.0678 46.5929 8.2014 44.9089 8.46747V8.46747Z" fill="#3766CC"/>
<path d="M75.8044 82.2554H79.03V85.4809H75.8044V82.2554Z" fill="#3766CC"/>
<path d="M20.9705 82.2554H24.196V85.4809H20.9705V82.2554Z" fill="#3766CC"/>
</svg>
