<svg width="110" height="110" viewBox="0 0 110 110" fill="none" xmlns="http://www.w3.org/2000/svg">
<circle cx="90" cy="90" r="20" fill="#F5F5F5"/>
<g clip-path="url(#clip0_818_3)">
<path d="M98.047 78.312C81.7353 78.312 65.7258 85.003 54.123 96.6691C53.3616 97.4343 53.3654 98.6711 54.1298 99.4309C54.5113 99.8101 55.0088 99.9993 55.5077 99.9993C56.009 99.9993 56.5102 99.8078 56.8924 99.4241C67.7674 88.4896 82.7676 82.2183 98.047 82.2183C99.1257 82.2183 100 81.3439 100 80.2651C100 79.1871 99.1257 78.312 98.047 78.312V78.312Z" fill="#3766CC"/>
<path d="M57.318 76.5032C56.7138 75.609 55.4999 75.374 54.6065 75.9783C46.2546 81.6195 39.2013 88.6782 33.641 96.9576C33.0398 97.8533 33.2778 99.0672 34.1735 99.6683C34.5084 99.8927 34.8861 100 35.2607 100C35.8893 100 36.5073 99.6966 36.8842 99.1358C42.1622 91.2752 48.8601 84.5728 56.7931 79.2147C57.6865 78.6112 57.9215 77.3974 57.318 76.5032Z" fill="#3766CC"/>
<path d="M98.0468 62.5894C89.3149 62.5894 80.6723 64.0809 72.3594 67.0228C71.3424 67.3821 70.8098 68.4983 71.1699 69.5153C71.453 70.3172 72.2068 70.8177 73.0109 70.8177C73.2268 70.8177 73.4465 70.781 73.6625 70.7047C81.5558 67.9116 89.7597 66.4956 98.0468 66.4956C99.1256 66.4956 99.9999 65.6213 99.9999 64.5425C99.9999 63.4637 99.1256 62.5894 98.0468 62.5894V62.5894Z" fill="#3766CC"/>
<path d="M27.9839 86.5982C40.8333 69.8448 59.4337 58.2123 79.9583 53.8529C79.9622 53.8521 79.966 53.8513 79.969 53.8506C85.8673 52.5986 91.9228 51.9463 98.0469 51.9463C99.1249 51.9463 100 51.0712 100 49.9932C100 48.9144 99.1249 48.04 98.0469 48.04C92.4934 48.04 86.9614 48.5481 81.5231 49.5423V45.3263C88.5826 39.3502 92.4576 31.5193 92.4576 23.1804C92.4576 14.5584 88.3156 6.47967 80.7938 0.431847C80.0789 -0.142647 79.0604 -0.142647 78.3455 0.431847C70.8244 6.47967 66.6817 14.5584 66.6817 23.1804C66.6817 31.5193 70.5574 39.3502 77.6161 45.3263V50.3411C73.9052 51.1856 70.2477 52.2621 66.6664 53.5584V42.1227C66.6664 41.5856 66.4497 41.0996 66.0988 40.7463V40.7456L55.1613 29.7432C54.7943 29.3747 54.2961 29.1672 53.7758 29.1672H31.4453C30.9258 29.1672 30.4268 29.3747 30.0606 29.7432L19.1231 40.7456V40.7463C18.7721 41.0996 18.5547 41.5856 18.5547 42.1234V49.5819C17.1936 49.3325 15.8264 49.1127 14.4531 48.925V41.9625C19.7914 37.3703 22.7203 31.3812 22.7203 25.0008C22.7203 18.335 19.5251 12.0957 13.7238 7.43029C13.0089 6.8558 11.9911 6.8558 11.2762 7.43029C5.47485 12.0949 2.27966 18.335 2.27966 25.0008C2.27966 31.3805 5.20859 37.3696 10.5469 41.9617V48.4757C7.69882 48.2094 4.8317 48.0721 1.95312 48.0721C0.874329 48.0721 0 48.9464 0 50.0252C0 51.104 0.874329 51.9783 1.95312 51.9783C17.5705 51.9783 32.8461 56.1104 46.3127 63.9496C43.0862 66.1423 40.0047 68.5372 37.0872 71.1151C26.1765 65.5564 14.0533 62.6229 1.95312 62.6229C0.875092 62.6229 0 63.4972 0 64.576C0 65.6548 0.875092 66.5291 1.95312 66.5291C12.9631 66.5291 23.9952 69.0895 34.0179 73.9517C31.0486 76.8242 28.273 79.8973 25.7118 83.1459C18.1145 79.9599 10.1295 78.3455 1.95312 78.3455C0.875092 78.3455 0 79.2198 0 80.2986C0 81.3774 0.875092 82.2518 1.95312 82.2518C9.27734 82.2518 16.4383 83.6403 23.2788 86.3747C21.9292 88.25 20.6467 90.1764 19.4405 92.154L16.4642 97.0299C15.9019 97.95 16.1934 99.1524 17.1135 99.7139C17.4316 99.9085 17.7826 100.001 18.1297 100.001C18.7874 100.001 19.4305 99.6674 19.7983 99.0647L22.7745 94.1887C24.3263 91.6458 26.0033 89.1991 27.7908 86.85C27.861 86.7722 27.9266 86.689 27.9839 86.5982V86.5982ZM70.5887 23.1804C70.5887 16.2384 73.7648 9.66265 79.57 4.50976C85.3752 9.66265 88.5513 16.2384 88.5513 23.1804C88.5513 29.2977 86.0825 35.1319 81.5231 39.9575V25.0008C81.5231 23.922 80.6488 23.0477 79.57 23.0477C78.4912 23.0477 77.6169 23.922 77.6169 25.0008V39.9575C73.0568 35.1319 70.5887 29.2977 70.5887 23.1804ZM6.18591 25.0008C6.18591 20.0188 8.41599 15.287 12.5 11.5273C16.584 15.2863 18.8141 20.0188 18.8141 25.0008C18.8141 29.1184 17.289 33.0658 14.4531 36.435V23.4383C14.4531 22.3595 13.5788 21.4852 12.5 21.4852C11.422 21.4852 10.5469 22.3595 10.5469 23.4383V36.435C7.71103 33.0658 6.18591 29.1184 6.18591 25.0008ZM60.0182 40.1695H43.1953L36.1412 33.0734H52.964L60.0182 40.1695ZM31.4453 33.8906L37.6877 40.1695H25.2037L31.4453 33.8906ZM22.4609 44.0758H40.4297V56.4965C39.5241 56.0799 38.6131 55.6771 37.6953 55.2902V48.7305C37.6953 47.6525 36.821 46.7774 35.7422 46.7774H27.1484C26.0704 46.7774 25.1953 47.6525 25.1953 48.7305V51.0529C24.2874 50.8164 23.3765 50.5921 22.4609 50.383V44.0758ZM33.7891 53.7491C32.2403 53.1784 30.6778 52.6489 29.1016 52.163V50.6836H33.7891V53.7491ZM44.3359 58.4076V44.0758H62.7609V55.0743C59.4154 56.4606 56.1462 58.0429 52.977 59.8221C51.9638 60.3905 50.9628 60.981 49.9733 61.5868C48.127 60.4592 46.2471 59.3987 44.3359 58.4076V58.4076Z" fill="#3766CC"/>
<path d="M79.5701 19.5312C80.0835 19.5312 80.5878 19.3222 80.951 18.9583C81.3141 18.5951 81.5232 18.0916 81.5232 17.5781C81.5232 17.0639 81.3149 16.5604 80.951 16.1972C80.5878 15.8333 80.0835 15.625 79.5701 15.625C79.0566 15.625 78.5523 15.8333 78.1899 16.1972C77.826 16.5604 77.6169 17.0639 77.6169 17.5781C77.6169 18.0916 77.826 18.5951 78.1899 18.9583C78.5523 19.3214 79.0566 19.5312 79.5701 19.5312Z" fill="#3766CC"/>
<path d="M62.6166 71.3415C62.2542 71.7047 62.0444 72.2082 62.0444 72.7217C62.0444 73.2374 62.2535 73.7394 62.6166 74.1026C62.9806 74.4665 63.4841 74.6748 63.9976 74.6748C64.5118 74.6748 65.0153 74.4665 65.3785 74.1026C65.7416 73.7394 65.9507 73.2374 65.9507 72.7217C65.9507 72.2082 65.7416 71.7047 65.3785 71.3415C65.0153 70.9776 64.5118 70.7686 63.9976 70.7686C63.4841 70.7686 62.9806 70.9776 62.6166 71.3415Z" fill="#3766CC"/>
</g>
<defs>
<clipPath id="clip0_818_3">
<rect width="100" height="100" fill="white"/>
</clipPath>
</defs>
</svg>
