<svg width="110" height="110" viewBox="0 0 110 110" fill="none" xmlns="http://www.w3.org/2000/svg">
<circle cx="90" cy="90" r="20" fill="#F5F5F5"/>
<g clip-path="url(#clip0_818_2)">
<path d="M81.6666 96.6666V33.3334C81.6666 32.9322 81.5218 32.5445 81.259 32.2414C80.9961 31.9384 80.6327 31.7403 80.2356 31.6836L56.9022 28.3502C56.6659 28.3165 56.425 28.3339 56.196 28.4013C55.9669 28.4688 55.755 28.5846 55.5746 28.7411C55.3943 28.8975 55.2496 29.0909 55.1504 29.3081C55.0513 29.5253 55 29.7613 55 30V41.6667H58.3333V31.9217L78.3333 34.7788V38.3334H66.6666V41.6667H78.3333V45H73.3333V48.3333H78.3333V51.6667H73.3333V55H78.3333V58.3333H73.3333V61.6667H78.3333V65H73.3333V68.3333H78.3333V71.6667H73.3333V75H78.3333V78.3333H73.3333V81.6667H78.3333V85H73.3333V88.3333H78.3333V96.6666H68.3333V46.6667C68.3333 46.2247 68.1577 45.8007 67.8451 45.4882C67.5326 45.1756 67.1086 45 66.6666 45H43.3333C42.8913 45 42.4673 45.1756 42.1548 45.4882C41.8422 45.8007 41.6666 46.2247 41.6666 46.6667V76.6667H45V48.3333H64.9999V96.6666H51.6666V81.6667C51.6666 81.2246 51.491 80.8007 51.1785 80.4881C50.8659 80.1756 50.442 80 50 80H36.6666C36.2246 80 35.8007 80.1756 35.4881 80.4881C35.1756 80.8007 35 81.2246 35 81.6667V96.6666H21.6666V91.6666H30V88.3333H21.6666V85H30V81.6667H21.6666V78.3333H30V75H21.6666V71.6667H30V68.3333H21.6666V65H38.3333V61.6667H28.8012L29.6346 58.3333H38.3333V55H28.3333C27.9616 55 27.6006 55.1243 27.3076 55.353C27.0147 55.5818 26.8066 55.9019 26.7164 56.2625L25.3654 61.6667H20C19.558 61.6667 19.134 61.8423 18.8215 62.1548C18.5089 62.4674 18.3333 62.8913 18.3333 63.3333V96.6666H0V100H99.9999V96.6666H81.6666ZM38.3333 83.3333H48.3333V96.6666H38.3333V83.3333Z" fill="#3766CC"/>
<path d="M50.0001 41.6668V30.0002C50.0001 29.5581 49.8245 29.1342 49.5119 28.8216C49.1993 28.5091 48.7754 28.3335 48.3334 28.3335H28.3334C27.8914 28.3335 27.4675 28.5091 27.1549 28.8216C26.8423 29.1342 26.6667 29.5581 26.6667 30.0002V51.6668H30.0001V31.6668H46.6667V41.6668H50.0001Z" fill="#3766CC"/>
<path d="M40 35H43.3333V38.3333H40V35Z" fill="#3766CC"/>
<path d="M33.3334 35H36.6667V38.3333H33.3334V35Z" fill="#3766CC"/>
<path d="M33.3334 41.6665H36.6667V44.9998H33.3334V41.6665Z" fill="#3766CC"/>
<path d="M33.3334 48.3335H36.6667V51.6668H33.3334V48.3335Z" fill="#3766CC"/>
<path d="M48.3334 51.6665H53.3334V54.9998H48.3334V51.6665Z" fill="#3766CC"/>
<path d="M56.6667 51.6665H61.6667V54.9998H56.6667V51.6665Z" fill="#3766CC"/>
<path d="M48.3334 58.3335H53.3334V61.6668H48.3334V58.3335Z" fill="#3766CC"/>
<path d="M56.6667 58.3335H61.6667V61.6668H56.6667V58.3335Z" fill="#3766CC"/>
<path d="M48.3334 65H53.3334V68.3333H48.3334V65Z" fill="#3766CC"/>
<path d="M56.6667 65H61.6667V68.3333H56.6667V65Z" fill="#3766CC"/>
<path d="M48.3334 71.6665H53.3334V74.9998H48.3334V71.6665Z" fill="#3766CC"/>
<path d="M56.6667 71.6665H61.6667V74.9998H56.6667V71.6665Z" fill="#3766CC"/>
<path d="M56.6667 78.3335H61.6667V81.6668H56.6667V78.3335Z" fill="#3766CC"/>
<path d="M56.6667 85H61.6667V88.3333H56.6667V85Z" fill="#3766CC"/>
<path d="M1.66708 20.001H6.66708V93.3343H10.0004V18.3343C10.0004 17.8923 9.82482 17.4684 9.51225 17.1558C9.19969 16.8433 8.77577 16.6677 8.33374 16.6677H5.13479L15.0004 4.33559L24.866 16.6677H21.6671C21.225 16.6677 20.8011 16.8433 20.4886 17.1558C20.176 17.4684 20.0004 17.8923 20.0004 18.3343V58.3343H23.3337V20.001H28.3337C28.6478 20.0011 28.9554 19.9124 29.2213 19.7453C29.4871 19.5781 29.7004 19.3393 29.8364 19.0562C29.9724 18.7732 30.0257 18.4574 29.9901 18.1454C29.9545 17.8334 29.8315 17.5378 29.6352 17.2927L16.3019 0.626009C16.1457 0.430827 15.9477 0.273264 15.7224 0.164986C15.4971 0.0567085 15.2504 0.000488281 15.0004 0.000488281C14.7505 0.000488281 14.5037 0.0567085 14.2784 0.164986C14.0531 0.273264 13.8551 0.430827 13.6989 0.626009L0.365626 17.2927C0.169354 17.5378 0.0463347 17.8334 0.0107411 18.1454C-0.0248525 18.4574 0.0284282 18.7732 0.164445 19.0562C0.300461 19.3393 0.513678 19.5781 0.779529 19.7453C1.04538 19.9124 1.35305 20.0011 1.66708 20.001V20.001Z" fill="#3766CC"/>
<path d="M71.6665 20H76.6665V26.6667H79.9998V18.3334C79.9998 17.8913 79.8242 17.4674 79.5116 17.1548C79.1991 16.8423 78.7752 16.6667 78.3331 16.6667H75.1342L84.9998 4.33461L94.8654 16.6667H91.6665C91.2244 16.6667 90.8005 16.8423 90.4879 17.1548C90.1754 17.4674 89.9998 17.8913 89.9998 18.3334V93.3333H93.3331V20H98.3331C98.6472 20.0001 98.9548 19.9114 99.2207 19.7443C99.4865 19.5771 99.6997 19.3383 99.8358 19.0552C99.9718 18.7722 100.025 18.4565 99.9895 18.1444C99.9539 17.8324 99.8309 17.5368 99.6346 17.2917L86.3013 0.625032C86.1451 0.42985 85.9471 0.272288 85.7218 0.16401C85.4965 0.0557319 85.2498 -0.000488281 84.9998 -0.000488281C84.7498 -0.000488281 84.5031 0.0557319 84.2778 0.16401C84.0525 0.272288 83.8545 0.42985 83.6983 0.625032L70.365 17.2917C70.1687 17.5368 70.0457 17.8324 70.0101 18.1444C69.9745 18.4565 70.0278 18.7722 70.1638 19.0552C70.2998 19.3383 70.5131 19.5771 70.7789 19.7443C71.0448 19.9114 71.3524 20.0001 71.6665 20V20Z" fill="#3766CC"/>
<path d="M36.6665 20H41.6665V25H44.9998V18.3333C44.9998 17.8913 44.8242 17.4674 44.5116 17.1548C44.1991 16.8423 43.7752 16.6667 43.3331 16.6667H40.1342L49.9998 4.33461L59.8654 16.6667H56.6665C56.2244 16.6667 55.8005 16.8423 55.4879 17.1548C55.1754 17.4674 54.9998 17.8913 54.9998 18.3333V25H58.3331V20H63.3331C63.6471 20.0001 63.9548 19.9114 64.2207 19.7443C64.4865 19.5771 64.6997 19.3383 64.8357 19.0552C64.9718 18.7722 65.025 18.4565 64.9894 18.1444C64.9539 17.8324 64.8308 17.5368 64.6346 17.2917L51.3013 0.625032C51.1451 0.42985 50.9471 0.272288 50.7218 0.16401C50.4965 0.0557319 50.2497 -0.000488281 49.9998 -0.000488281C49.7498 -0.000488281 49.5031 0.0557319 49.2778 0.16401C49.0525 0.272288 48.8545 0.42985 48.6983 0.625032L35.365 17.2917C35.1687 17.5368 35.0457 17.8324 35.0101 18.1444C34.9745 18.4565 35.0278 18.7722 35.1638 19.0552C35.2999 19.3383 35.5131 19.5771 35.7789 19.7443C36.0448 19.9114 36.3524 20.0001 36.6665 20V20Z" fill="#3766CC"/>
</g>
<defs>
<clipPath id="clip0_818_2">
<rect width="100" height="100" fill="white"/>
</clipPath>
</defs>
</svg>
